<?xml version="1.0" encoding="utf-8"?>
<!-- Generator: Adobe Illustrator 24.0.1, SVG Export Plug-In . SVG Version: 6.00 Build 0)  -->
<svg version="1.1" id="Layer_1" xmlns="http://www.w3.org/2000/svg" xmlns:xlink="http://www.w3.org/1999/xlink" x="0px" y="0px"
	 viewBox="0 0 289.8 289.8" style="enable-background:new 0 0 289.8 289.8;" xml:space="preserve">
<style type="text/css">
	.st0{fill:#7500FF;}
</style>
<g>
	<path class="st0" d="M262.17,68.93c-1.7,1.69-1.71,4.44-0.02,6.14c1.69,1.7,4.44,1.71,6.14,0.02c1.7-1.69,1.71-4.44,0.02-6.14
		S263.87,67.24,262.17,68.93z"/>
	<path class="st0" d="M246.68,63.05c-1.7,1.69-1.71,4.44-0.02,6.14c1.69,1.7,4.44,1.71,6.14,0.02c1.7-1.69,1.71-4.44,0.02-6.14
		C251.13,61.37,248.38,61.36,246.68,63.05z"/>
	<path class="st0" d="M231.17,59.16c-1.7,1.69-1.71,4.44-0.02,6.14c1.69,1.7,4.44,1.71,6.14,0.02c1.7-1.69,1.71-4.44,0.02-6.14
		C235.62,57.48,232.87,57.47,231.17,59.16z"/>
	<path class="st0" d="M216.53,57.14c-1.7,1.69-1.71,4.44-0.02,6.14c1.69,1.7,4.44,1.71,6.14,0.02c1.7-1.69,1.71-4.44,0.02-6.14
		C220.99,55.45,218.24,55.45,216.53,57.14z"/>
	<path class="st0" d="M208.51,64.25c1.7-1.69,1.71-4.44,0.02-6.14c-1.69-1.7-4.44-1.71-6.14-0.02c-1.7,1.69-1.71,4.44-0.02,6.14
		C204.06,65.93,206.81,65.94,208.51,64.25z"/>
	<path class="st0" d="M190.22,59.3c-1.7,1.69-1.71,4.44-0.02,6.14c1.69,1.7,4.44,1.71,6.14,0.02c1.7-1.69,1.71-4.44,0.02-6.14
		C194.67,57.61,191.92,57.61,190.22,59.3z"/>
	<path class="st0" d="M177.06,61.74c-1.7,1.69-1.71,4.44-0.02,6.14c1.69,1.7,4.44,1.71,6.14,0.02c1.7-1.69,1.71-4.44,0.02-6.14
		C181.51,60.06,178.76,60.05,177.06,61.74z"/>
	<path class="st0" d="M166.37,67.92c-1.7,1.69-1.71,4.44-0.02,6.14c1.69,1.7,4.44,1.71,6.14,0.02c1.7-1.69,1.71-4.44,0.02-6.14
		C170.82,66.23,168.07,66.23,166.37,67.92z"/>
	<path class="st0" d="M157.16,74.84c-1.7,1.69-1.71,4.44-0.02,6.14c1.69,1.7,4.44,1.71,6.14,0.02c1.7-1.69,1.71-4.44,0.02-6.14
		C161.61,73.16,158.86,73.15,157.16,74.84z"/>
	<path class="st0" d="M148.95,82.26c-1.7,1.69-1.71,4.44-0.02,6.14c1.69,1.7,4.44,1.71,6.14,0.02c1.7-1.69,1.71-4.44,0.02-6.14
		C153.4,80.58,150.65,80.57,148.95,82.26z"/>
	<path class="st0" d="M142.97,89.69c-1.7,1.69-1.71,4.44-0.02,6.14c1.69,1.7,4.44,1.71,6.14,0.02c1.7-1.69,1.71-4.44,0.02-6.14
		C147.43,88.01,144.67,88,142.97,89.69z"/>
	<path class="st0" d="M144.86,103.78c1.7-1.69,1.71-4.44,0.02-6.14c-1.69-1.7-4.44-1.71-6.14-0.02c-1.7,1.69-1.71,4.44-0.02,6.14
		C140.41,105.47,143.16,105.48,144.86,103.78z"/>
	<path class="st0" d="M251.13,46.33c-1.99-1.34-4.69-0.81-6.03,1.18c-1.34,1.99-0.81,4.69,1.18,6.03c1.99,1.34,4.69,0.81,6.03-1.18
		C253.65,50.37,253.12,47.67,251.13,46.33z"/>
	<path class="st0" d="M234.78,43.59c-1.99-1.34-4.69-0.81-6.03,1.18c-1.34,1.99-0.81,4.69,1.18,6.03c1.99,1.34,4.69,0.81,6.03-1.18
		C237.3,47.63,236.77,44.93,234.78,43.59z"/>
	<path class="st0" d="M212.79,43.98c-1.34,1.99-0.81,4.69,1.18,6.03c1.99,1.34,4.69,0.81,6.03-1.18c1.34-1.99,0.81-4.69-1.18-6.03
		C216.83,41.46,214.13,41.99,212.79,43.98z"/>
	<path class="st0" d="M204.07,43.67c-1.99-1.34-4.69-0.81-6.03,1.18c-1.34,1.99-0.81,4.69,1.18,6.03c1.99,1.34,4.69,0.81,6.03-1.18
		C206.59,47.7,206.06,45,204.07,43.67z"/>
	<path class="st0" d="M190.37,47.36c-1.99-1.34-4.69-0.81-6.03,1.18c-1.34,1.99-0.81,4.69,1.18,6.03c1.99,1.34,4.69,0.81,6.03-1.18
		C192.89,51.4,192.36,48.7,190.37,47.36z"/>
	<path class="st0" d="M178.68,50.92c-1.99-1.34-4.69-0.81-6.03,1.18c-1.34,1.99-0.81,4.69,1.18,6.03c1.99,1.34,4.69,0.81,6.03-1.18
		C181.2,54.96,180.67,52.26,178.68,50.92z"/>
	<path class="st0" d="M160.22,57.07c-1.34,1.99-0.81,4.69,1.18,6.03c1.99,1.34,4.69,0.81,6.03-1.18c1.34-1.99,0.81-4.69-1.18-6.03
		C164.25,54.55,161.56,55.07,160.22,57.07z"/>
	<path class="st0" d="M156.97,64.03c-1.99-1.34-4.69-0.81-6.03,1.18c-1.34,1.99-0.81,4.69,1.18,6.03c1.99,1.34,4.69,0.81,6.03-1.18
		C159.49,68.06,158.96,65.37,156.97,64.03z"/>
	<path class="st0" d="M149.29,72.61c-1.99-1.34-4.69-0.81-6.03,1.18c-1.34,1.99-0.81,4.69,1.18,6.03c1.99,1.34,4.69,0.81,6.03-1.18
		C151.81,76.65,151.28,73.95,149.29,72.61z"/>
	<path class="st0" d="M142.68,81.5c-1.99-1.34-4.69-0.81-6.03,1.18c-1.34,1.99-0.81,4.69,1.18,6.03c1.99,1.34,4.69,0.81,6.03-1.18
		C145.2,85.53,144.67,82.83,142.68,81.5z"/>
	<path class="st0" d="M132.24,91.13c-1.34,1.99-0.81,4.69,1.18,6.03c1.99,1.34,4.69,0.81,6.03-1.18c1.34-1.99,0.81-4.69-1.18-6.03
		C136.28,88.61,133.58,89.14,132.24,91.13z"/>
	<path class="st0" d="M129.63,99.74c-1.34,1.99-0.81,4.69,1.18,6.03c1.99,1.34,4.69,0.81,6.03-1.18c1.34-1.99,0.81-4.69-1.18-6.03
		C133.67,97.22,130.97,97.75,129.63,99.74z"/>
	<path class="st0" d="M226.51,35.52c2.21,0.92,4.76-0.12,5.68-2.33c0.92-2.21-0.12-4.76-2.33-5.68c-2.21-0.92-4.76,0.12-5.68,2.34
		S224.3,34.59,226.51,35.52z"/>
	<path class="st0" d="M215.63,33.68c0.92-2.21-0.12-4.76-2.33-5.68c-2.21-0.92-4.76,0.12-5.68,2.34c-0.92,2.21,0.12,4.76,2.34,5.68
		C212.16,36.94,214.7,35.9,215.63,33.68z"/>
	<path class="st0" d="M197.48,30.34c-2.21-0.92-4.76,0.12-5.68,2.33c-0.92,2.21,0.12,4.76,2.34,5.68c2.21,0.92,4.76-0.12,5.68-2.33
		C200.74,33.81,199.7,31.26,197.48,30.34z"/>
	<path class="st0" d="M177.5,36.4c-0.92,2.21,0.12,4.76,2.34,5.68c2.21,0.92,4.76-0.12,5.68-2.33c0.92-2.21-0.12-4.76-2.34-5.68
		C180.97,33.14,178.42,34.19,177.5,36.4z"/>
	<path class="st0" d="M164.79,42.7c-0.92,2.21,0.12,4.76,2.34,5.68c2.21,0.92,4.76-0.12,5.68-2.34c0.92-2.21-0.12-4.76-2.34-5.68
		C168.26,39.44,165.72,40.48,164.79,42.7z"/>
	<path class="st0" d="M159.7,46.13c-2.21-0.92-4.76,0.12-5.68,2.33c-0.92,2.21,0.12,4.76,2.33,5.68c2.21,0.92,4.76-0.12,5.68-2.33
		C162.95,49.6,161.91,47.06,159.7,46.13z"/>
	<path class="st0" d="M142.79,55.76c-0.92,2.21,0.12,4.76,2.33,5.68c2.21,0.92,4.76-0.12,5.68-2.34c0.92-2.21-0.12-4.76-2.34-5.68
		C146.26,52.51,143.71,53.55,142.79,55.76z"/>
	<path class="st0" d="M140.96,63.23c-2.21-0.92-4.76,0.12-5.68,2.34c-0.92,2.21,0.12,4.76,2.34,5.68c2.21,0.92,4.76-0.12,5.68-2.33
		C144.22,66.69,143.17,64.15,140.96,63.23z"/>
	<path class="st0" d="M129.42,75.48c-0.92,2.21,0.12,4.76,2.34,5.68c2.21,0.92,4.76-0.12,5.68-2.34c0.92-2.21-0.12-4.76-2.33-5.68
		S130.35,73.27,129.42,75.48z"/>
	<path class="st0" d="M124.68,85.48c-0.92,2.21,0.12,4.76,2.34,5.68c2.21,0.92,4.76-0.12,5.68-2.33c0.92-2.21-0.12-4.76-2.33-5.68
		S125.6,83.27,124.68,85.48z"/>
	<path class="st0" d="M127.68,92.3c-2.21-0.92-4.76,0.12-5.68,2.33c-0.92,2.21,0.12,4.76,2.34,5.68c2.21,0.92,4.76-0.12,5.68-2.33
		C130.94,95.77,129.89,93.22,127.68,92.3z"/>
	<path class="st0" d="M129.13,106.93c0.92-2.21-0.12-4.76-2.34-5.68c-2.21-0.93-4.76,0.12-5.68,2.33c-0.92,2.21,0.12,4.76,2.33,5.68
		C125.66,110.19,128.21,109.14,129.13,106.93z"/>
	<path class="st0" d="M205.32,13.18c-2.35-0.47-4.64,1.05-5.12,3.4c-0.47,2.35,1.05,4.64,3.4,5.12c2.35,0.47,4.64-1.05,5.12-3.4
		C209.2,15.95,207.68,13.66,205.32,13.18z"/>
	<path class="st0" d="M189.17,16.9c-2.35-0.47-4.64,1.05-5.12,3.4c-0.47,2.35,1.05,4.64,3.4,5.12c2.35,0.48,4.64-1.05,5.12-3.4
		C193.05,19.67,191.53,17.38,189.17,16.9z"/>
	<path class="st0" d="M169.01,25.68c-0.48,2.35,1.05,4.64,3.4,5.12c2.35,0.47,4.64-1.05,5.12-3.4c0.48-2.35-1.05-4.64-3.4-5.12
		C171.77,21.81,169.48,23.33,169.01,25.68z"/>
	<path class="st0" d="M159.11,37.24c2.35,0.48,4.64-1.05,5.12-3.4c0.47-2.35-1.05-4.64-3.4-5.12c-2.35-0.47-4.64,1.05-5.12,3.4
		C155.23,34.48,156.75,36.77,159.11,37.24z"/>
	<path class="st0" d="M147.87,45.9c2.35,0.47,4.64-1.05,5.12-3.4c0.48-2.35-1.05-4.64-3.4-5.12c-2.35-0.47-4.64,1.05-5.12,3.4
		C144,43.13,145.52,45.42,147.87,45.9z"/>
	<path class="st0" d="M140.14,45.14c-2.35-0.47-4.64,1.05-5.12,3.4c-0.47,2.35,1.05,4.64,3.4,5.12c2.35,0.47,4.64-1.05,5.12-3.4
		C144.02,47.91,142.49,45.62,140.14,45.14z"/>
	<path class="st0" d="M130.56,54.49c-2.35-0.47-4.64,1.05-5.12,3.4c-0.48,2.35,1.05,4.64,3.4,5.12c2.35,0.47,4.64-1.05,5.12-3.4
		C134.43,57.26,132.91,54.96,130.56,54.49z"/>
	<path class="st0" d="M125.1,65.56c-2.35-0.47-4.64,1.05-5.12,3.4c-0.47,2.35,1.05,4.64,3.4,5.12c2.35,0.47,4.64-1.05,5.12-3.4
		C128.97,68.33,127.45,66.04,125.1,65.56z"/>
	<path class="st0" d="M121.29,76.43c-2.35-0.47-4.64,1.05-5.12,3.4c-0.47,2.35,1.05,4.64,3.4,5.12c2.35,0.48,4.64-1.05,5.12-3.4
		C125.17,79.2,123.65,76.91,121.29,76.43z"/>
	<path class="st0" d="M113.47,90.57c-0.47,2.35,1.05,4.64,3.4,5.12c2.35,0.48,4.64-1.05,5.12-3.4c0.48-2.35-1.05-4.64-3.4-5.12
		C116.24,86.69,113.95,88.21,113.47,90.57z"/>
	<path class="st0" d="M116.03,105.18c2.35,0.48,4.64-1.05,5.12-3.4c0.47-2.35-1.05-4.64-3.4-5.12c-2.35-0.47-4.64,1.05-5.12,3.4
		C112.16,102.42,113.68,104.71,116.03,105.18z"/>
	<path class="st0" d="M122.03,110.74c0.48-2.35-1.05-4.64-3.4-5.12c-2.35-0.47-4.64,1.05-5.12,3.4c-0.48,2.35,1.05,4.64,3.4,5.12
		C119.26,114.61,121.55,113.09,122.03,110.74z"/>
	<path class="st0" d="M178.47,3.92c-2.4-0.01-4.35,1.93-4.35,4.33c-0.01,2.4,1.93,4.35,4.33,4.36c2.4,0.01,4.35-1.93,4.36-4.33
		C182.81,5.88,180.87,3.93,178.47,3.92z"/>
	<path class="st0" d="M163.33,19.41c2.4,0.01,4.35-1.93,4.36-4.33c0.01-2.4-1.93-4.35-4.33-4.36c-2.4-0.01-4.35,1.93-4.36,4.33
		C158.99,17.45,160.93,19.4,163.33,19.41z"/>
	<path class="st0" d="M149.64,18.94c-2.4-0.01-4.35,1.93-4.36,4.33c-0.01,2.4,1.93,4.35,4.33,4.36c2.4,0.01,4.35-1.93,4.36-4.33
		C153.98,20.89,152.04,18.94,149.64,18.94z"/>
	<path class="st0" d="M137.86,27.85c-2.4-0.01-4.35,1.93-4.36,4.33c-0.01,2.4,1.93,4.35,4.33,4.36c2.4,0.01,4.35-1.93,4.36-4.33
		C142.2,29.81,140.26,27.86,137.86,27.85z"/>
	<path class="st0" d="M128.53,38.53c-2.4-0.01-4.35,1.93-4.36,4.33c-0.01,2.4,1.93,4.35,4.33,4.36c2.4,0.01,4.35-1.93,4.36-4.33
		C132.86,40.49,130.92,38.54,128.53,38.53z"/>
	<path class="st0" d="M120.78,47.99c-2.4-0.01-4.35,1.93-4.36,4.33c-0.01,2.4,1.93,4.35,4.33,4.36c2.4,0.01,4.35-1.93,4.36-4.33
		C125.11,49.95,123.17,48,120.78,47.99z"/>
	<path class="st0" d="M113.2,59.02c-2.4-0.01-4.35,1.93-4.36,4.33c-0.01,2.4,1.93,4.35,4.33,4.36c2.4,0.01,4.35-1.93,4.36-4.33
		C117.54,60.98,115.6,59.03,113.2,59.02z"/>
	<path class="st0" d="M105.65,75.28c-0.01,2.4,1.93,4.35,4.33,4.36c2.4,0.01,4.35-1.93,4.36-4.33c0.01-2.4-1.93-4.35-4.33-4.36
		C107.61,70.94,105.65,72.88,105.65,75.28z"/>
	<path class="st0" d="M108.39,82.35c-2.4-0.01-4.35,1.93-4.36,4.33c-0.01,2.4,1.93,4.35,4.33,4.36c2.4,0.01,4.35-1.93,4.36-4.33
		C112.73,84.31,110.79,82.36,108.39,82.35z"/>
	<path class="st0" d="M107.81,102.1c2.4,0.01,4.35-1.93,4.36-4.33c0.01-2.4-1.93-4.35-4.33-4.36c-2.4-0.01-4.35,1.93-4.36,4.33
		C103.47,100.14,105.41,102.09,107.81,102.1z"/>
	<path class="st0" d="M108.86,102.89c-2.4-0.01-4.35,1.93-4.36,4.33c-0.01,2.4,1.93,4.35,4.33,4.36c2.4,0.01,4.35-1.93,4.36-4.33
		C113.2,104.85,111.26,102.9,108.86,102.89z"/>
	<path class="st0" d="M115.8,115.85c0.01-2.4-1.93-4.35-4.33-4.36c-2.4-0.01-4.35,1.93-4.36,4.33c-0.01,2.4,1.93,4.35,4.33,4.36
		C113.84,120.19,115.79,118.25,115.8,115.85z"/>
	<path class="st0" d="M146.89,5.18c0.46,2.35,2.74,3.89,5.1,3.43s3.89-2.74,3.43-5.1c-0.46-2.35-2.74-3.89-5.1-3.43
		S146.43,2.83,146.89,5.18z"/>
	<path class="st0" d="M138.5,18.23c2.35-0.46,3.89-2.74,3.43-5.1c-0.46-2.35-2.74-3.89-5.1-3.43c-2.35,0.46-3.89,2.74-3.43,5.1
		C133.86,17.15,136.14,18.69,138.5,18.23z"/>
	<path class="st0" d="M124.98,20.43c-2.35,0.46-3.89,2.74-3.43,5.1s2.74,3.89,5.1,3.43c2.35-0.46,3.89-2.74,3.43-5.1
		S127.33,19.97,124.98,20.43z"/>
	<path class="st0" d="M115.16,31.47c-2.35,0.46-3.89,2.74-3.43,5.1s2.74,3.89,5.1,3.43c2.35-0.46,3.89-2.74,3.43-5.1
		S117.51,31.01,115.16,31.47z"/>
	<path class="st0" d="M104.66,48.87c0.46,2.35,2.74,3.89,5.1,3.43c2.35-0.46,3.89-2.74,3.43-5.1c-0.46-2.35-2.74-3.89-5.1-3.43
		C105.74,44.23,104.2,46.51,104.66,48.87z"/>
	<path class="st0" d="M102.33,54.56c-2.35,0.46-3.89,2.74-3.43,5.1s2.74,3.89,5.1,3.43c2.35-0.46,3.89-2.74,3.43-5.1
		C106.97,55.63,104.69,54.09,102.33,54.56z"/>
	<path class="st0" d="M97.05,66.86c-2.35,0.46-3.89,2.74-3.43,5.1s2.74,3.89,5.1,3.43c2.35-0.46,3.89-2.74,3.43-5.1
		C101.69,67.93,99.41,66.4,97.05,66.86z"/>
	<path class="st0" d="M92.82,84.28c0.46,2.35,2.74,3.89,5.1,3.43c2.35-0.46,3.89-2.74,3.43-5.1c-0.46-2.35-2.74-3.89-5.1-3.43
		C93.89,79.64,92.36,81.92,92.82,84.28z"/>
	<path class="st0" d="M96.89,90.68c-2.35,0.46-3.89,2.74-3.43,5.1c0.46,2.35,2.74,3.89,5.1,3.43c2.35-0.46,3.89-2.74,3.43-5.1
		C101.53,91.75,99.25,90.22,96.89,90.68z"/>
	<path class="st0" d="M98.5,101.63c-2.35,0.46-3.89,2.74-3.43,5.1s2.74,3.89,5.1,3.43c2.35-0.46,3.89-2.74,3.43-5.1
		C103.14,102.7,100.86,101.17,98.5,101.63z"/>
	<path class="st0" d="M101.36,110.73c-2.35,0.46-3.89,2.74-3.43,5.1s2.74,3.89,5.1,3.43s3.89-2.74,3.43-5.1
		C106,111.8,103.71,110.27,101.36,110.73z"/>
	<path class="st0" d="M110.69,122.09c-0.46-2.35-2.74-3.89-5.1-3.43c-2.35,0.46-3.89,2.74-3.43,5.1s2.74,3.89,5.1,3.43
		C109.62,126.72,111.16,124.44,110.69,122.09z"/>
	<path class="st0" d="M121.97,1.81c-2.22,0.91-3.28,3.45-2.37,5.67c0.91,2.22,3.45,3.28,5.67,2.37c2.22-0.91,3.28-3.45,2.37-5.67
		C126.72,1.95,124.19,0.89,121.97,1.81z"/>
	<path class="st0" d="M110.61,13.87c-2.22,0.91-3.28,3.45-2.37,5.67c0.91,2.22,3.45,3.28,5.67,2.37s3.28-3.45,2.37-5.67
		C115.36,14.02,112.83,12.96,110.61,13.87z"/>
	<path class="st0" d="M101.08,26.71c-2.22,0.91-3.28,3.45-2.37,5.67c0.91,2.22,3.45,3.28,5.67,2.37c2.22-0.91,3.28-3.45,2.37-5.67
		C105.84,26.85,103.3,25.8,101.08,26.71z"/>
	<path class="st0" d="M91.24,45.12c0.91,2.22,3.45,3.28,5.67,2.37c2.22-0.91,3.28-3.45,2.37-5.67c-0.91-2.22-3.45-3.28-5.67-2.37
		C91.38,40.37,90.33,42.9,91.24,45.12z"/>
	<path class="st0" d="M89.07,52.89c-2.22,0.91-3.28,3.45-2.37,5.67c0.91,2.22,3.45,3.28,5.67,2.37c2.22-0.91,3.28-3.45,2.37-5.67
		S91.29,51.98,89.07,52.89z"/>
	<path class="st0" d="M83.16,70.26c0.91,2.22,3.45,3.28,5.67,2.37c2.22-0.91,3.28-3.45,2.37-5.67c-0.91-2.22-3.45-3.28-5.67-2.37
		C83.31,65.51,82.25,68.04,83.16,70.26z"/>
	<path class="st0" d="M82.75,77.69c-2.22,0.91-3.28,3.45-2.37,5.67c0.91,2.22,3.45,3.28,5.67,2.37c2.22-0.91,3.28-3.45,2.37-5.67
		C87.51,77.84,84.97,76.78,82.75,77.69z"/>
	<path class="st0" d="M84.36,89.93c-2.22,0.91-3.28,3.45-2.37,5.67c0.91,2.22,3.45,3.28,5.67,2.37c2.22-0.91,3.28-3.45,2.37-5.67
		C89.12,90.08,86.58,89.02,84.36,89.93z"/>
	<path class="st0" d="M87.24,101.08c-2.22,0.91-3.28,3.45-2.37,5.67s3.45,3.28,5.67,2.37c2.22-0.91,3.28-3.45,2.37-5.67
		C91.99,101.23,89.46,100.17,87.24,101.08z"/>
	<path class="st0" d="M90.95,111.51c-2.22,0.91-3.28,3.45-2.37,5.67c0.91,2.22,3.45,3.28,5.67,2.37c2.22-0.91,3.28-3.45,2.37-5.67
		C95.71,111.66,93.17,110.6,90.95,111.51z"/>
	<path class="st0" d="M95.53,119.88c-2.22,0.91-3.28,3.45-2.37,5.67c0.91,2.22,3.45,3.28,5.67,2.37c2.22-0.91,3.28-3.45,2.37-5.67
		C100.29,120.02,97.75,118.97,95.53,119.88z"/>
	<path class="st0" d="M106.9,129.2c-0.91-2.22-3.45-3.28-5.67-2.37c-2.22,0.91-3.28,3.45-2.37,5.67c0.91,2.22,3.45,3.28,5.67,2.37
		C106.75,133.96,107.81,131.42,106.9,129.2z"/>
	<path class="st0" d="M94.49,9.03c-2,1.33-2.54,4.02-1.22,6.02c1.33,2,4.02,2.54,6.02,1.22c2-1.33,2.54-4.02,1.22-6.02
		C99.19,8.24,96.49,7.7,94.49,9.03z"/>
	<path class="st0" d="M84.49,29.1c1.33,2,4.02,2.54,6.02,1.22c2-1.33,2.54-4.02,1.22-6.02c-1.33-2-4.02-2.54-6.02-1.22
		C83.71,24.41,83.16,27.1,84.49,29.1z"/>
	<path class="st0" d="M78.86,37.53c-2,1.33-2.54,4.02-1.22,6.02c1.33,2,4.02,2.54,6.02,1.22c2-1.33,2.54-4.02,1.22-6.02
		C83.56,36.74,80.86,36.2,78.86,37.53z"/>
	<path class="st0" d="M74.02,51.49c-2,1.33-2.54,4.02-1.22,6.02c1.33,2,4.02,2.54,6.02,1.21c2-1.33,2.54-4.02,1.22-6.02
		C78.72,50.7,76.02,50.16,74.02,51.49z"/>
	<path class="st0" d="M77,72.79c2-1.33,2.54-4.02,1.22-6.02c-1.33-2-4.02-2.54-6.02-1.22c-2,1.33-2.54,4.02-1.22,6.02
		C72.31,73.57,75,74.12,77,72.79z"/>
	<path class="st0" d="M69.79,83.74c1.33,2,4.02,2.54,6.02,1.22c2-1.33,2.54-4.02,1.22-6.02c-1.33-2-4.02-2.54-6.02-1.22
		C69.01,79.05,68.46,81.74,69.79,83.74z"/>
	<path class="st0" d="M69.62,97.13c1.33,2,4.02,2.54,6.02,1.22c2-1.33,2.54-4.02,1.21-6.02c-1.33-2-4.02-2.54-6.02-1.22
		C68.83,92.43,68.29,95.13,69.62,97.13z"/>
	<path class="st0" d="M74.8,102.8c-2,1.33-2.54,4.02-1.22,6.02c1.33,2,4.02,2.54,6.02,1.22c2-1.33,2.54-4.02,1.22-6.02
		C79.5,102.01,76.8,101.47,74.8,102.8z"/>
	<path class="st0" d="M79.8,113.17c-2,1.33-2.54,4.02-1.21,6.02c1.33,2,4.02,2.54,6.02,1.22s2.54-4.02,1.22-6.02
		C84.49,112.39,81.8,111.85,79.8,113.17z"/>
	<path class="st0" d="M85.48,122.68c-2,1.33-2.54,4.02-1.21,6.02c1.33,2,4.02,2.54,6.02,1.22c2-1.33,2.54-4.02,1.22-6.02
		C90.17,121.89,87.48,121.35,85.48,122.68z"/>
	<path class="st0" d="M90.38,136.01c1.33,2,4.02,2.54,6.02,1.22c2-1.33,2.54-4.02,1.21-6.02c-1.33-2-4.02-2.54-6.02-1.22
		C89.6,131.32,89.05,134.01,90.38,136.01z"/>
	<path class="st0" d="M104.57,136.91c-1.33-2-4.02-2.54-6.02-1.22c-2,1.33-2.54,4.02-1.21,6.02c1.33,2,4.02,2.54,6.02,1.22
		C105.35,141.61,105.9,138.91,104.57,136.91z"/>
	<path class="st0" d="M68.96,21.47c-1.7,1.69-1.71,4.44-0.02,6.14c1.69,1.7,4.44,1.71,6.14,0.02c1.7-1.69,1.71-4.44,0.02-6.14
		C73.41,19.79,70.66,19.78,68.96,21.47z"/>
	<path class="st0" d="M63.08,36.97c-1.7,1.69-1.71,4.44-0.02,6.14c1.69,1.7,4.44,1.71,6.14,0.02c1.7-1.69,1.71-4.44,0.02-6.14
		C67.53,35.28,64.78,35.28,63.08,36.97z"/>
	<path class="st0" d="M59.17,58.61c1.69,1.7,4.44,1.71,6.14,0.02c1.7-1.69,1.71-4.44,0.02-6.14c-1.69-1.7-4.44-1.71-6.14-0.02
		C57.49,54.16,57.48,56.91,59.17,58.61z"/>
	<path class="st0" d="M57.14,73.25c1.69,1.7,4.44,1.71,6.14,0.02c1.7-1.69,1.71-4.44,0.02-6.14c-1.69-1.7-4.44-1.71-6.14-0.02
		C55.46,68.8,55.45,71.55,57.14,73.25z"/>
	<path class="st0" d="M64.24,87.42c1.7-1.69,1.71-4.44,0.02-6.14c-1.69-1.7-4.44-1.71-6.14-0.02c-1.7,1.69-1.71,4.44-0.02,6.14
		C59.79,89.1,62.54,89.11,64.24,87.42z"/>
	<path class="st0" d="M65.44,99.59c1.7-1.69,1.71-4.44,0.02-6.14c-1.69-1.7-4.44-1.71-6.14-0.02c-1.7,1.69-1.71,4.44-0.02,6.14
		C60.99,101.27,63.74,101.28,65.44,99.59z"/>
	<path class="st0" d="M61.76,106.59c-1.7,1.69-1.71,4.44-0.02,6.14c1.69,1.7,4.44,1.71,6.14,0.02c1.7-1.69,1.71-4.44,0.02-6.14
		C66.21,104.9,63.46,104.9,61.76,106.59z"/>
	<path class="st0" d="M67.94,117.28c-1.7,1.69-1.71,4.44-0.02,6.14c1.69,1.7,4.44,1.71,6.14,0.02s1.71-4.44,0.02-6.14
		C72.39,115.6,69.64,115.59,67.94,117.28z"/>
	<path class="st0" d="M74.84,132.63c1.69,1.7,4.44,1.71,6.14,0.02s1.71-4.44,0.02-6.14c-1.69-1.7-4.44-1.71-6.14-0.02
		C73.16,128.17,73.15,130.92,74.84,132.63z"/>
	<path class="st0" d="M82.28,134.7c-1.7,1.69-1.71,4.44-0.02,6.14c1.69,1.7,4.44,1.71,6.14,0.02c1.7-1.69,1.71-4.44,0.02-6.14
		C86.74,133.01,83.99,133,82.28,134.7z"/>
	<path class="st0" d="M89.71,140.67c-1.7,1.69-1.71,4.44-0.02,6.14c1.69,1.7,4.44,1.71,6.14,0.02c1.7-1.69,1.71-4.44,0.02-6.14
		C94.16,138.99,91.41,138.98,89.71,140.67z"/>
	<path class="st0" d="M97.64,144.91c-1.7,1.69-1.71,4.44-0.02,6.14s4.44,1.71,6.14,0.02c1.7-1.69,1.71-4.44,0.02-6.14
		C102.1,143.23,99.35,143.22,97.64,144.91z"/>
	<path class="st0" d="M47.52,44.69c1.99,1.34,4.69,0.81,6.03-1.18c1.34-1.99,0.81-4.69-1.18-6.03c-1.99-1.34-4.69-0.81-6.03,1.18
		C45,40.65,45.53,43.35,47.52,44.69z"/>
	<path class="st0" d="M49.62,53.82c-1.99-1.34-4.69-0.81-6.03,1.18c-1.34,1.99-0.81,4.69,1.18,6.03c1.99,1.34,4.69,0.81,6.03-1.18
		C52.14,57.86,51.61,55.16,49.62,53.82z"/>
	<path class="st0" d="M43.98,76.99c1.99,1.34,4.69,0.81,6.03-1.18c1.34-1.99,0.81-4.69-1.18-6.03c-1.99-1.34-4.69-0.81-6.03,1.18
		C41.46,72.96,41.99,75.66,43.98,76.99z"/>
	<path class="st0" d="M49.7,84.54c-1.99-1.34-4.69-0.81-6.03,1.18c-1.34,1.99-0.81,4.69,1.18,6.03c1.99,1.34,4.69,0.81,6.03-1.18
		C52.22,88.58,51.69,85.88,49.7,84.54z"/>
	<path class="st0" d="M53.39,98.23c-1.99-1.34-4.69-0.81-6.03,1.18c-1.34,1.99-0.81,4.69,1.18,6.03c1.99,1.34,4.69,0.81,6.03-1.18
		C55.91,102.27,55.38,99.57,53.39,98.23z"/>
	<path class="st0" d="M50.92,111.11c-1.34,1.99-0.81,4.69,1.18,6.03c1.99,1.34,4.69,0.81,6.03-1.18c1.34-1.99,0.81-4.69-1.18-6.03
		C54.96,108.59,52.26,109.12,50.92,111.11z"/>
	<path class="st0" d="M55.89,123.54c-1.34,1.99-0.81,4.69,1.18,6.03c1.99,1.34,4.69,0.81,6.03-1.18c1.34-1.99,0.81-4.69-1.18-6.03
		C59.92,121.02,57.22,121.55,55.89,123.54z"/>
	<path class="st0" d="M64.03,132.82c-1.34,1.99-0.81,4.69,1.18,6.03c1.99,1.34,4.69,0.81,6.03-1.18s0.81-4.69-1.18-6.03
		C68.07,130.3,65.37,130.83,64.03,132.82z"/>
	<path class="st0" d="M72.61,140.5c-1.34,1.99-0.81,4.69,1.18,6.03c1.99,1.34,4.69,0.81,6.03-1.18c1.34-1.99,0.81-4.69-1.18-6.03
		C76.65,137.98,73.95,138.51,72.61,140.5z"/>
	<path class="st0" d="M82.68,153.13c1.99,1.34,4.69,0.81,6.03-1.18s0.81-4.69-1.18-6.03c-1.99-1.34-4.69-0.81-6.03,1.18
		C80.16,149.1,80.69,151.8,82.68,153.13z"/>
	<path class="st0" d="M91.13,157.55c1.99,1.34,4.69,0.81,6.03-1.18c1.34-1.99,0.81-4.69-1.18-6.03c-1.99-1.34-4.69-0.81-6.03,1.18
		C88.61,153.51,89.14,156.21,91.13,157.55z"/>
	<path class="st0" d="M99.74,160.16c1.99,1.34,4.69,0.81,6.03-1.18c1.34-1.99,0.81-4.69-1.18-6.03c-1.99-1.34-4.69-0.81-6.03,1.18
		C97.22,156.12,97.75,158.82,99.74,160.16z"/>
	<path class="st0" d="M33.19,57.59c-2.21-0.92-4.76,0.12-5.68,2.33c-0.92,2.21,0.12,4.76,2.34,5.68c2.21,0.92,4.76-0.12,5.68-2.34
		C36.45,61.06,35.4,58.52,33.19,57.59z"/>
	<path class="st0" d="M33.69,74.16c-2.21-0.92-4.76,0.12-5.68,2.33c-0.92,2.21,0.12,4.76,2.33,5.68c2.21,0.92,4.76-0.12,5.68-2.33
		S35.9,75.08,33.69,74.16z"/>
	<path class="st0" d="M36.02,89.97c-2.21-0.92-4.76,0.12-5.68,2.33c-0.92,2.21,0.12,4.76,2.33,5.68c2.21,0.92,4.76-0.12,5.68-2.33
		C39.28,93.44,38.24,90.89,36.02,89.97z"/>
	<path class="st0" d="M39.75,104.27c-2.21-0.92-4.76,0.12-5.68,2.33c-0.92,2.21,0.12,4.76,2.34,5.68c2.21,0.92,4.76-0.12,5.68-2.34
		C43.01,107.74,41.97,105.19,39.75,104.27z"/>
	<path class="st0" d="M48.38,122.66c0.92-2.21-0.12-4.76-2.33-5.68c-2.21-0.93-4.76,0.12-5.68,2.33c-0.92,2.21,0.12,4.76,2.33,5.68
		C44.91,125.92,47.46,124.88,48.38,122.66z"/>
	<path class="st0" d="M48.47,135.77c2.21,0.92,4.76-0.12,5.68-2.33c0.92-2.21-0.12-4.76-2.33-5.68c-2.21-0.92-4.76,0.12-5.68,2.33
		C45.21,132.31,46.26,134.85,48.47,135.77z"/>
	<path class="st0" d="M55.77,147c2.21,0.93,4.76-0.12,5.68-2.33c0.92-2.21-0.12-4.76-2.34-5.68c-2.21-0.93-4.76,0.12-5.68,2.33
		C52.51,143.53,53.55,146.07,55.77,147z"/>
	<path class="st0" d="M65.56,154.51c2.21,0.93,4.76-0.12,5.68-2.33c0.92-2.21-0.12-4.76-2.33-5.68c-2.21-0.92-4.76,0.12-5.68,2.33
		C62.3,151.04,63.35,153.59,65.56,154.51z"/>
	<path class="st0" d="M81.16,158.03c0.92-2.21-0.12-4.76-2.33-5.68c-2.21-0.92-4.76,0.12-5.68,2.33c-0.92,2.21,0.12,4.76,2.33,5.68
		C77.69,161.29,80.24,160.25,81.16,158.03z"/>
	<path class="st0" d="M85.48,165.11c2.21,0.92,4.76-0.12,5.68-2.33c0.92-2.21-0.12-4.76-2.33-5.68c-2.21-0.93-4.76,0.12-5.68,2.33
		C82.22,161.65,83.27,164.19,85.48,165.11z"/>
	<path class="st0" d="M100.31,165.46c0.92-2.21-0.12-4.76-2.33-5.68c-2.21-0.93-4.76,0.12-5.68,2.33c-0.92,2.21,0.12,4.76,2.33,5.68
		C96.85,168.72,99.39,167.67,100.31,165.46z"/>
	<path class="st0" d="M109.26,166.34c0.92-2.21-0.12-4.76-2.33-5.68c-2.21-0.93-4.76,0.12-5.68,2.33c-0.92,2.21,0.12,4.76,2.34,5.68
		C105.8,169.6,108.34,168.56,109.26,166.34z"/>
	<path class="st0" d="M18.3,81.06c-2.35-0.47-4.64,1.05-5.12,3.4c-0.48,2.35,1.05,4.64,3.4,5.12c2.35,0.47,4.64-1.05,5.12-3.4
		C22.17,83.83,20.65,81.54,18.3,81.06z"/>
	<path class="st0" d="M22.02,97.21c-2.35-0.47-4.64,1.05-5.12,3.4c-0.47,2.35,1.05,4.64,3.4,5.12c2.35,0.48,4.64-1.05,5.12-3.4
		C25.9,99.98,24.37,97.69,22.02,97.21z"/>
	<path class="st0" d="M22.28,115.66c-0.48,2.35,1.05,4.64,3.4,5.12c2.35,0.47,4.64-1.05,5.12-3.4c0.47-2.35-1.05-4.64-3.4-5.12
		C25.05,111.79,22.76,113.31,22.28,115.66z"/>
	<path class="st0" d="M33.85,125.56c-2.35-0.47-4.64,1.05-5.12,3.4c-0.47,2.35,1.05,4.64,3.4,5.12c2.35,0.48,4.64-1.05,5.12-3.4
		C37.72,128.33,36.2,126.04,33.85,125.56z"/>
	<path class="st0" d="M40.78,145.31c2.35,0.47,4.64-1.05,5.12-3.4c0.47-2.35-1.05-4.64-3.4-5.12c-2.35-0.47-4.64,1.05-5.12,3.4
		C36.91,142.55,38.43,144.84,40.78,145.31z"/>
	<path class="st0" d="M53.66,151.36c0.47-2.35-1.05-4.64-3.4-5.12c-2.35-0.47-4.64,1.05-5.12,3.4c-0.48,2.35,1.05,4.64,3.4,5.12
		C50.89,155.24,53.19,153.71,53.66,151.36z"/>
	<path class="st0" d="M57.89,164.35c2.35,0.48,4.64-1.05,5.12-3.4c0.47-2.35-1.05-4.64-3.4-5.12c-2.35-0.47-4.64,1.05-5.12,3.4
		C54.01,161.58,55.54,163.87,57.89,164.35z"/>
	<path class="st0" d="M68.96,169.81c2.35,0.48,4.64-1.05,5.12-3.4c0.48-2.35-1.05-4.64-3.4-5.12c-2.35-0.47-4.64,1.05-5.12,3.4
		C65.09,167.04,66.61,169.33,68.96,169.81z"/>
	<path class="st0" d="M79.83,173.61c2.35,0.47,4.64-1.05,5.12-3.4c0.48-2.35-1.05-4.64-3.4-5.12c-2.35-0.48-4.64,1.05-5.12,3.4
		C75.96,170.85,77.48,173.14,79.83,173.61z"/>
	<path class="st0" d="M90.57,176.32c2.35,0.48,4.64-1.05,5.12-3.4c0.48-2.35-1.05-4.64-3.4-5.12c-2.35-0.47-4.64,1.05-5.12,3.4
		C86.69,173.55,88.21,175.84,90.57,176.32z"/>
	<path class="st0" d="M100.07,177.16c2.35,0.47,4.64-1.05,5.12-3.4c0.47-2.35-1.05-4.64-3.4-5.12c-2.35-0.48-4.64,1.05-5.12,3.4
		C96.19,174.39,97.71,176.68,100.07,177.16z"/>
	<path class="st0" d="M109.02,176.28c2.35,0.47,4.64-1.05,5.12-3.4c0.47-2.35-1.05-4.64-3.4-5.12c-2.35-0.47-4.64,1.05-5.12,3.4
		C105.14,173.52,106.66,175.81,109.02,176.28z"/>
	<path class="st0" d="M8.28,106.98c-2.4-0.01-4.35,1.93-4.36,4.33c-0.01,2.4,1.93,4.35,4.33,4.36c2.4,0.01,4.35-1.93,4.36-4.33
		C12.62,108.94,10.68,106.99,8.28,106.98z"/>
	<path class="st0" d="M10.73,126.43c-0.01,2.4,1.93,4.35,4.33,4.36c2.4,0.01,4.35-1.93,4.36-4.33s-1.93-4.35-4.33-4.36
		C12.68,122.09,10.73,124.03,10.73,126.43z"/>
	<path class="st0" d="M27.62,140.17c0.01-2.4-1.93-4.35-4.33-4.36c-2.4-0.01-4.35,1.93-4.36,4.33c-0.01,2.4,1.93,4.35,4.33,4.36
		C25.67,144.51,27.62,142.57,27.62,140.17z"/>
	<path class="st0" d="M32.18,156.28c2.4,0.01,4.35-1.93,4.36-4.33c0.01-2.4-1.93-4.35-4.33-4.36s-4.35,1.93-4.36,4.33
		C27.85,154.33,29.79,156.28,32.18,156.28z"/>
	<path class="st0" d="M47.22,161.29c0.01-2.4-1.93-4.35-4.33-4.36c-2.4-0.01-4.35,1.93-4.36,4.33c-0.01,2.4,1.93,4.35,4.33,4.36
		C45.26,165.62,47.21,163.69,47.22,161.29z"/>
	<path class="st0" d="M52.32,173.37c2.4,0.01,4.35-1.93,4.36-4.33c0.01-2.4-1.93-4.35-4.33-4.36c-2.4-0.01-4.35,1.93-4.36,4.33
		C47.98,171.41,49.92,173.36,52.32,173.37z"/>
	<path class="st0" d="M63.35,180.95c2.4,0.01,4.35-1.93,4.36-4.33c0.01-2.4-1.93-4.35-4.33-4.36c-2.4-0.01-4.35,1.93-4.36,4.33
		C59.02,178.99,60.96,180.94,63.35,180.95z"/>
	<path class="st0" d="M79.64,179.81c0.01-2.4-1.93-4.35-4.33-4.36c-2.4-0.01-4.35,1.93-4.36,4.33c-0.01,2.4,1.93,4.35,4.33,4.36
		C77.68,184.15,79.63,182.21,79.64,179.81z"/>
	<path class="st0" d="M91.04,181.42c0.01-2.4-1.93-4.35-4.33-4.36c-2.4-0.01-4.35,1.93-4.36,4.33c-0.01,2.4,1.93,4.35,4.33,4.36
		C89.08,185.76,91.03,183.82,91.04,181.42z"/>
	<path class="st0" d="M102.1,181.98c0.01-2.4-1.93-4.35-4.33-4.36c-2.4-0.01-4.35,1.93-4.36,4.33c-0.01,2.4,1.93,4.35,4.33,4.36
		C100.14,186.32,102.09,184.38,102.1,181.98z"/>
	<path class="st0" d="M111.58,180.96c0.01-2.4-1.93-4.35-4.33-4.36c-2.4-0.01-4.35,1.93-4.36,4.33c-0.01,2.4,1.93,4.35,4.33,4.36
		C109.62,185.29,111.57,183.35,111.58,180.96z"/>
	<path class="st0" d="M115.83,182.68c2.4,0.01,4.35-1.93,4.36-4.33s-1.93-4.35-4.33-4.36c-2.4-0.01-4.35,1.93-4.36,4.33
		C111.49,180.72,113.43,182.67,115.83,182.68z"/>
	<path class="st0" d="M0.08,139.46c0.46,2.35,2.74,3.89,5.1,3.43c2.35-0.46,3.89-2.74,3.43-5.1c-0.46-2.35-2.74-3.89-5.1-3.43
		C1.16,134.83-0.38,137.11,0.08,139.46z"/>
	<path class="st0" d="M13.13,147.86c-2.35,0.46-3.89,2.74-3.43,5.1c0.46,2.35,2.74,3.89,5.1,3.43c2.35-0.46,3.89-2.74,3.43-5.1
		S15.48,147.4,13.13,147.86z"/>
	<path class="st0" d="M25.53,168.24c2.35-0.46,3.89-2.74,3.43-5.1s-2.74-3.89-5.1-3.43c-2.35,0.46-3.89,2.74-3.43,5.1
		S23.17,168.7,25.53,168.24z"/>
	<path class="st0" d="M36.57,178.06c2.36-0.46,3.89-2.74,3.43-5.1s-2.74-3.89-5.1-3.43c-2.35,0.46-3.89,2.74-3.43,5.1
		C31.93,176.98,34.22,178.52,36.57,178.06z"/>
	<path class="st0" d="M52.29,180.03c-0.46-2.35-2.74-3.89-5.1-3.43c-2.35,0.46-3.89,2.74-3.43,5.1c0.46,2.35,2.74,3.89,5.1,3.43
		C51.22,184.66,52.75,182.38,52.29,180.03z"/>
	<path class="st0" d="M63.08,185.78c-0.46-2.35-2.74-3.89-5.1-3.43c-2.35,0.46-3.89,2.74-3.43,5.1c0.46,2.35,2.74,3.89,5.1,3.43
		C62.01,190.42,63.54,188.14,63.08,185.78z"/>
	<path class="st0" d="M75.38,191.06c-0.46-2.35-2.74-3.89-5.1-3.43c-2.35,0.46-3.89,2.74-3.43,5.1c0.46,2.35,2.74,3.89,5.1,3.43
		C74.31,195.7,75.84,193.42,75.38,191.06z"/>
	<path class="st0" d="M87.7,191.87c-0.46-2.35-2.74-3.89-5.1-3.43c-2.35,0.46-3.89,2.74-3.43,5.1c0.46,2.35,2.74,3.89,5.1,3.43
		C86.63,196.51,88.16,194.22,87.7,191.87z"/>
	<path class="st0" d="M99.2,191.23c-0.46-2.35-2.74-3.89-5.1-3.43c-2.35,0.46-3.89,2.74-3.43,5.1c0.46,2.35,2.74,3.89,5.1,3.43
		C98.13,195.86,99.66,193.58,99.2,191.23z"/>
	<path class="st0" d="M106.73,194.72c2.35-0.46,3.89-2.74,3.43-5.1s-2.74-3.89-5.1-3.43c-2.35,0.46-3.89,2.74-3.43,5.1
		C102.09,193.64,104.37,195.18,106.73,194.72z"/>
	<path class="st0" d="M115.82,191.86c2.36-0.46,3.89-2.74,3.43-5.1s-2.74-3.89-5.1-3.43c-2.35,0.46-3.89,2.74-3.43,5.1
		C111.19,190.79,113.47,192.32,115.82,191.86z"/>
	<path class="st0" d="M123.76,187.62c2.35-0.46,3.89-2.74,3.43-5.1s-2.74-3.89-5.1-3.43c-2.35,0.46-3.89,2.74-3.43,5.1
		C119.12,186.55,121.4,188.08,123.76,187.62z"/>
	<path class="st0" d="M7.47,170.19c2.22-0.91,3.28-3.45,2.37-5.67c-0.91-2.22-3.45-3.28-5.67-2.37c-2.22,0.91-3.28,3.45-2.37,5.67
		C2.72,170.04,5.25,171.1,7.47,170.19z"/>
	<path class="st0" d="M19.54,181.55c2.22-0.91,3.28-3.45,2.37-5.67c-0.91-2.22-3.45-3.28-5.67-2.37c-2.22,0.91-3.28,3.45-2.37,5.67
		C14.78,181.4,17.32,182.46,19.54,181.55z"/>
	<path class="st0" d="M34.74,185.41c-0.91-2.22-3.45-3.28-5.67-2.37c-2.22,0.91-3.28,3.45-2.37,5.67c0.91,2.22,3.45,3.28,5.67,2.37
		C34.59,190.16,35.65,187.63,34.74,185.41z"/>
	<path class="st0" d="M47.49,192.88c-0.91-2.22-3.45-3.28-5.67-2.37c-2.22,0.91-3.28,3.45-2.37,5.67c0.91,2.22,3.45,3.28,5.67,2.37
		C47.34,197.64,48.4,195.1,47.49,192.88z"/>
	<path class="st0" d="M58.56,203.09c2.22-0.91,3.28-3.45,2.37-5.67c-0.91-2.22-3.45-3.28-5.67-2.37c-2.22,0.91-3.28,3.45-2.37,5.67
		C53.8,202.94,56.34,204,58.56,203.09z"/>
	<path class="st0" d="M70.26,206.63c2.22-0.91,3.28-3.45,2.37-5.67s-3.45-3.28-5.67-2.37c-2.22,0.91-3.28,3.45-2.37,5.67
		C65.5,206.48,68.04,207.54,70.26,206.63z"/>
	<path class="st0" d="M80.06,201.37c-2.22,0.91-3.28,3.45-2.37,5.67c0.91,2.22,3.45,3.28,5.67,2.37c2.22-0.91,3.28-3.45,2.37-5.67
		C84.81,201.52,82.27,200.46,80.06,201.37z"/>
	<path class="st0" d="M95.6,207.79c2.22-0.91,3.28-3.45,2.37-5.67c-0.91-2.22-3.45-3.28-5.67-2.37c-2.22,0.91-3.28,3.45-2.37,5.67
		C90.84,207.65,93.38,208.71,95.6,207.79z"/>
	<path class="st0" d="M106.75,204.92c2.22-0.91,3.28-3.45,2.37-5.67s-3.45-3.28-5.67-2.37c-2.22,0.91-3.28,3.45-2.37,5.67
		S104.53,205.83,106.75,204.92z"/>
	<path class="st0" d="M117.18,201.21c2.22-0.91,3.28-3.45,2.37-5.67s-3.45-3.28-5.67-2.37s-3.28,3.45-2.37,5.67
		C112.42,201.06,114.96,202.12,117.18,201.21z"/>
	<path class="st0" d="M125.55,196.63c2.22-0.91,3.28-3.45,2.37-5.67c-0.91-2.22-3.45-3.28-5.67-2.37c-2.22,0.91-3.28,3.45-2.37,5.67
		C120.79,196.48,123.33,197.54,125.55,196.63z"/>
	<path class="st0" d="M132.5,190.93c2.22-0.91,3.28-3.45,2.37-5.67c-0.91-2.22-3.45-3.28-5.67-2.37c-2.22,0.91-3.28,3.45-2.37,5.67
		C127.74,190.78,130.28,191.84,132.5,190.93z"/>
	<path class="st0" d="M15.05,196.51c2-1.33,2.54-4.02,1.22-6.02c-1.33-2-4.02-2.54-6.02-1.22c-2,1.33-2.54,4.02-1.22,6.02
		C10.35,197.29,13.05,197.84,15.05,196.51z"/>
	<path class="st0" d="M30.31,199.28c-1.33-2-4.02-2.54-6.02-1.22c-2,1.33-2.54,4.02-1.22,6.02c1.33,2,4.02,2.54,6.02,1.21
		C31.1,203.97,31.64,201.27,30.31,199.28z"/>
	<path class="st0" d="M44.76,206.12c-1.33-2-4.02-2.54-6.02-1.22c-2,1.33-2.54,4.02-1.22,6.02c1.33,2,4.02,2.54,6.02,1.22
		C45.54,210.81,46.09,208.12,44.76,206.12z"/>
	<path class="st0" d="M57.51,216.98c2-1.33,2.54-4.02,1.22-6.02c-1.33-2-4.02-2.54-6.02-1.22c-2,1.33-2.54,4.02-1.21,6.02
		C52.81,217.77,55.51,218.31,57.51,216.98z"/>
	<path class="st0" d="M71.57,218.81c2-1.33,2.54-4.02,1.22-6.02c-1.33-2-4.02-2.54-6.02-1.22c-2,1.33-2.54,4.02-1.22,6.02
		C66.88,219.59,69.57,220.14,71.57,218.81z"/>
	<path class="st0" d="M83.74,220c2-1.33,2.54-4.02,1.22-6.02c-1.33-2-4.02-2.54-6.02-1.22c-2,1.33-2.54,4.02-1.22,6.02
		C79.04,220.79,81.74,221.33,83.74,220z"/>
	<path class="st0" d="M97.12,220.17c2-1.33,2.54-4.02,1.22-6.02c-1.33-2-4.02-2.54-6.02-1.22c-2,1.33-2.54,4.02-1.22,6.02
		C92.43,220.96,95.13,221.5,97.12,220.17z"/>
	<path class="st0" d="M108.81,216.2c2-1.33,2.54-4.02,1.22-6.02c-1.33-2-4.02-2.54-6.02-1.22c-2,1.33-2.54,4.02-1.22,6.02
		C104.12,216.99,106.82,217.53,108.81,216.2z"/>
	<path class="st0" d="M119.19,211.21c2-1.33,2.54-4.02,1.22-6.02c-1.33-2-4.02-2.54-6.02-1.22c-2,1.33-2.54,4.02-1.22,6.02
		C114.5,211.99,117.19,212.54,119.19,211.21z"/>
	<path class="st0" d="M128.7,205.53c2-1.33,2.54-4.02,1.22-6.02c-1.33-2-4.02-2.54-6.02-1.22c-2,1.33-2.54,4.02-1.22,6.02
		C124,206.31,126.7,206.86,128.7,205.53z"/>
	<path class="st0" d="M136.01,199.41c2-1.33,2.54-4.02,1.22-6.02c-1.33-2-4.02-2.54-6.02-1.22c-2,1.33-2.54,4.02-1.22,6.02
		C131.31,200.19,134.01,200.74,136.01,199.41z"/>
	<path class="st0" d="M135.7,191.25c1.33,2,4.02,2.54,6.02,1.21c2-1.33,2.54-4.02,1.22-6.02c-1.33-2-4.02-2.54-6.02-1.22
		C134.91,186.55,134.37,189.25,135.7,191.25z"/>
	<path class="st0" d="M27.61,220.85c1.7-1.69,1.71-4.44,0.02-6.14c-1.69-1.7-4.44-1.71-6.14-0.02c-1.7,1.69-1.71,4.44-0.02,6.14
		C23.16,222.53,25.91,222.54,27.61,220.85z"/>
	<path class="st0" d="M43.11,226.73c1.7-1.69,1.71-4.44,0.02-6.14c-1.69-1.7-4.44-1.71-6.14-0.02c-1.7,1.69-1.71,4.44-0.02,6.14
		C38.65,228.41,41.41,228.42,43.11,226.73z"/>
	<path class="st0" d="M58.61,230.62c1.7-1.69,1.71-4.44,0.02-6.14c-1.69-1.7-4.44-1.71-6.14-0.02c-1.7,1.69-1.71,4.44-0.02,6.14
		C54.16,232.3,56.91,232.31,58.61,230.62z"/>
	<path class="st0" d="M73.25,232.65c1.7-1.69,1.71-4.44,0.02-6.14c-1.69-1.7-4.44-1.71-6.14-0.02c-1.7,1.69-1.71,4.44-0.02,6.14
		C68.8,234.33,71.55,234.34,73.25,232.65z"/>
	<path class="st0" d="M87.4,231.7c1.7-1.69,1.71-4.44,0.02-6.14c-1.69-1.7-4.44-1.71-6.14-0.02c-1.7,1.69-1.71,4.44-0.02,6.14
		C82.95,233.38,85.7,233.39,87.4,231.7z"/>
	<path class="st0" d="M99.56,230.49c1.7-1.69,1.71-4.44,0.02-6.14c-1.69-1.7-4.44-1.71-6.14-0.02c-1.7,1.69-1.71,4.44-0.02,6.14
		C95.11,232.17,97.86,232.18,99.56,230.49z"/>
	<path class="st0" d="M112.73,228.05c1.7-1.69,1.71-4.44,0.02-6.14s-4.44-1.71-6.14-0.02c-1.7,1.69-1.71,4.44-0.02,6.14
		C108.28,229.73,111.03,229.74,112.73,228.05z"/>
	<path class="st0" d="M123.42,221.87c1.7-1.69,1.71-4.44,0.02-6.14c-1.69-1.7-4.44-1.71-6.14-0.02c-1.7,1.69-1.71,4.44-0.02,6.14
		C118.97,223.56,121.72,223.56,123.42,221.87z"/>
	<path class="st0" d="M132.62,214.95c1.7-1.69,1.71-4.44,0.02-6.14c-1.69-1.7-4.44-1.71-6.14-0.02c-1.7,1.69-1.71,4.44-0.02,6.14
		C128.17,216.63,130.92,216.64,132.62,214.95z"/>
	<path class="st0" d="M140.84,207.53c1.7-1.69,1.71-4.44,0.02-6.14c-1.69-1.7-4.44-1.71-6.14-0.02c-1.7,1.69-1.71,4.44-0.02,6.14
		C136.39,209.21,139.14,209.22,140.84,207.53z"/>
	<path class="st0" d="M146.82,200.1c1.7-1.69,1.71-4.44,0.02-6.14c-1.69-1.7-4.44-1.71-6.14-0.02c-1.7,1.69-1.71,4.44-0.02,6.14
		C142.36,201.78,145.11,201.79,146.82,200.1z"/>
	<path class="st0" d="M151.06,192.17c1.7-1.69,1.71-4.44,0.02-6.14c-1.69-1.7-4.44-1.71-6.14-0.02c-1.7,1.69-1.71,4.44-0.02,6.14
		C146.61,193.85,149.36,193.86,151.06,192.17z"/>
	<path class="st0" d="M38.65,243.45c1.99,1.34,4.69,0.81,6.03-1.18c1.34-1.99,0.81-4.69-1.18-6.03c-1.99-1.34-4.69-0.81-6.03,1.18
		C36.13,239.41,36.66,242.11,38.65,243.45z"/>
	<path class="st0" d="M61.03,245.01c1.34-1.99,0.81-4.69-1.18-6.03c-1.99-1.34-4.69-0.81-6.03,1.18c-1.34,1.99-0.81,4.69,1.18,6.03
		C56.99,247.53,59.69,247,61.03,245.01z"/>
	<path class="st0" d="M70.96,246.99c1.99,1.34,4.69,0.81,6.03-1.18c1.34-1.99,0.81-4.69-1.18-6.03c-1.99-1.34-4.69-0.81-6.03,1.18
		C68.44,242.95,68.97,245.65,70.96,246.99z"/>
	<path class="st0" d="M85.71,246.12c1.99,1.34,4.69,0.81,6.03-1.18c1.34-1.99,0.81-4.69-1.18-6.03c-1.99-1.34-4.69-0.81-6.03,1.18
		C83.2,242.08,83.72,244.78,85.71,246.12z"/>
	<path class="st0" d="M99.41,242.43c1.99,1.34,4.69,0.81,6.03-1.18c1.34-1.99,0.81-4.69-1.18-6.03c-1.99-1.34-4.69-0.81-6.03,1.18
		C96.89,238.39,97.42,241.09,99.41,242.43z"/>
	<path class="st0" d="M117.13,237.69c1.34-1.99,0.81-4.69-1.18-6.03c-1.99-1.34-4.69-0.81-6.03,1.18c-1.34,1.99-0.81,4.69,1.18,6.03
		C113.1,240.21,115.8,239.68,117.13,237.69z"/>
	<path class="st0" d="M123.54,233.91c1.99,1.34,4.69,0.81,6.03-1.18c1.34-1.99,0.81-4.69-1.18-6.03c-1.99-1.34-4.69-0.81-6.03,1.18
		C121.02,229.87,121.55,232.57,123.54,233.91z"/>
	<path class="st0" d="M132.82,225.77c1.99,1.34,4.69,0.81,6.03-1.18c1.34-1.99,0.81-4.69-1.18-6.03c-1.99-1.34-4.69-0.81-6.03,1.18
		C130.3,221.73,130.83,224.43,132.82,225.77z"/>
	<path class="st0" d="M140.5,217.18c1.99,1.34,4.69,0.81,6.03-1.18c1.34-1.99,0.81-4.69-1.18-6.03c-1.99-1.34-4.69-0.81-6.03,1.18
		S138.51,215.84,140.5,217.18z"/>
	<path class="st0" d="M147.1,208.3c1.99,1.34,4.69,0.81,6.03-1.18c1.34-1.99,0.81-4.69-1.18-6.03c-1.99-1.34-4.69-0.81-6.03,1.18
		C144.59,204.26,145.11,206.96,147.1,208.3z"/>
	<path class="st0" d="M157.55,198.66c1.34-1.99,0.81-4.69-1.18-6.03c-1.99-1.34-4.69-0.81-6.03,1.18c-1.34,1.99-0.81,4.69,1.18,6.03
		C153.51,201.18,156.21,200.65,157.55,198.66z"/>
	<path class="st0" d="M160.16,190.06c1.34-1.99,0.81-4.69-1.18-6.03c-1.99-1.34-4.69-0.81-6.03,1.18c-1.34,1.99-0.81,4.69,1.18,6.03
		C156.12,192.58,158.82,192.05,160.16,190.06z"/>
	<path class="st0" d="M57.59,256.6c-0.92,2.21,0.12,4.76,2.33,5.68c2.21,0.92,4.76-0.12,5.68-2.33c0.93-2.21-0.12-4.76-2.33-5.68
		C61.05,253.34,58.51,254.39,57.59,256.6z"/>
	<path class="st0" d="M76.49,261.79c2.21,0.92,4.76-0.12,5.68-2.33c0.92-2.21-0.12-4.76-2.33-5.68c-2.21-0.93-4.76,0.12-5.68,2.33
		C73.23,258.32,74.27,260.86,76.49,261.79z"/>
	<path class="st0" d="M92.3,259.45c2.21,0.92,4.76-0.12,5.68-2.33c0.92-2.21-0.12-4.76-2.33-5.68c-2.21-0.93-4.76,0.12-5.68,2.33
		C89.04,255.98,90.08,258.53,92.3,259.45z"/>
	<path class="st0" d="M109.95,247.71c-2.21-0.92-4.76,0.12-5.68,2.33c-0.93,2.21,0.12,4.76,2.33,5.68c2.21,0.92,4.76-0.12,5.68-2.33
		C113.21,251.17,112.16,248.63,109.95,247.71z"/>
	<path class="st0" d="M124.99,247.09c0.92-2.21-0.12-4.76-2.33-5.68s-4.76,0.12-5.68,2.33c-0.92,2.21,0.12,4.76,2.33,5.68
		C121.52,250.35,124.07,249.31,124.99,247.09z"/>
	<path class="st0" d="M135.77,241.32c0.92-2.21-0.12-4.76-2.33-5.68s-4.76,0.12-5.68,2.33c-0.92,2.21,0.12,4.76,2.33,5.68
		C132.3,244.58,134.85,243.54,135.77,241.32z"/>
	<path class="st0" d="M147,234.03c0.92-2.21-0.12-4.76-2.33-5.68c-2.21-0.92-4.76,0.12-5.68,2.33c-0.92,2.21,0.12,4.76,2.33,5.68
		C143.53,237.29,146.07,236.24,147,234.03z"/>
	<path class="st0" d="M148.83,226.57c2.21,0.92,4.76-0.12,5.68-2.33c0.92-2.21-0.12-4.76-2.33-5.68c-2.21-0.92-4.76,0.12-5.68,2.33
		C145.57,223.1,146.62,225.64,148.83,226.57z"/>
	<path class="st0" d="M160.37,214.31c0.92-2.21-0.12-4.76-2.33-5.68c-2.21-0.93-4.76,0.12-5.68,2.33c-0.93,2.21,0.12,4.76,2.33,5.68
		C156.9,217.57,159.44,216.53,160.37,214.31z"/>
	<path class="st0" d="M165.11,204.31c0.92-2.21-0.12-4.76-2.33-5.68c-2.21-0.92-4.76,0.12-5.68,2.33c-0.92,2.21,0.12,4.76,2.33,5.68
		C161.64,207.57,164.19,206.53,165.11,204.31z"/>
	<path class="st0" d="M162.11,197.5c2.21,0.93,4.76-0.12,5.68-2.33c0.92-2.21-0.12-4.76-2.33-5.68c-2.21-0.92-4.76,0.12-5.68,2.33
		C158.85,194.03,159.9,196.57,162.11,197.5z"/>
	<path class="st0" d="M160.66,182.86c-0.92,2.21,0.12,4.76,2.33,5.68c2.21,0.92,4.76-0.12,5.68-2.33c0.92-2.21-0.12-4.76-2.33-5.68
		C164.13,179.61,161.59,180.65,160.66,182.86z"/>
	<path class="st0" d="M84.45,276.61c2.35,0.47,4.64-1.05,5.12-3.4c0.47-2.35-1.05-4.64-3.4-5.12s-4.64,1.05-5.12,3.4
		C80.58,273.84,82.1,276.13,84.45,276.61z"/>
	<path class="st0" d="M102.32,264.37c-2.35-0.48-4.64,1.05-5.12,3.4c-0.48,2.35,1.05,4.64,3.4,5.12c2.35,0.48,4.64-1.05,5.12-3.4
		C106.2,267.14,104.67,264.85,102.32,264.37z"/>
	<path class="st0" d="M117.38,259c-2.35-0.48-4.64,1.05-5.12,3.4c-0.47,2.35,1.05,4.64,3.4,5.12c2.35,0.47,4.64-1.05,5.12-3.4
		C121.25,261.76,119.73,259.47,117.38,259z"/>
	<path class="st0" d="M134.07,257.67c0.48-2.35-1.05-4.64-3.4-5.12c-2.35-0.47-4.64,1.05-5.12,3.4c-0.47,2.35,1.05,4.64,3.4,5.12
		C131.31,261.54,133.6,260.02,134.07,257.67z"/>
	<path class="st0" d="M141.91,243.9c-2.35-0.48-4.64,1.05-5.12,3.4c-0.47,2.35,1.05,4.64,3.4,5.12c2.35,0.48,4.64-1.05,5.12-3.4
		C145.79,246.66,144.26,244.37,141.91,243.9z"/>
	<path class="st0" d="M149.64,244.65c2.35,0.48,4.64-1.05,5.12-3.4c0.48-2.35-1.05-4.64-3.4-5.12c-2.35-0.47-4.64,1.05-5.12,3.4
		C145.77,241.88,147.29,244.18,149.64,244.65z"/>
	<path class="st0" d="M159.23,235.31c2.35,0.48,4.64-1.05,5.12-3.4c0.47-2.35-1.05-4.64-3.4-5.12c-2.35-0.47-4.64,1.05-5.12,3.4
		C155.35,232.54,156.87,234.83,159.23,235.31z"/>
	<path class="st0" d="M169.8,220.83c0.47-2.35-1.05-4.64-3.4-5.12c-2.35-0.48-4.64,1.05-5.12,3.4c-0.47,2.35,1.05,4.64,3.4,5.12
		C167.04,224.71,169.33,223.19,169.8,220.83z"/>
	<path class="st0" d="M168.49,213.36c2.35,0.47,4.64-1.05,5.12-3.4c0.47-2.35-1.05-4.64-3.4-5.12c-2.35-0.47-4.64,1.05-5.12,3.4
		C164.62,210.6,166.14,212.89,168.49,213.36z"/>
	<path class="st0" d="M171.2,202.63c2.35,0.47,4.64-1.05,5.12-3.4c0.47-2.35-1.05-4.64-3.4-5.12c-2.35-0.47-4.64,1.05-5.12,3.4
		C167.33,199.86,168.85,202.15,171.2,202.63z"/>
	<path class="st0" d="M173.76,184.61c-2.35-0.48-4.64,1.05-5.12,3.4c-0.47,2.35,1.05,4.64,3.4,5.12c2.35,0.47,4.64-1.05,5.12-3.4
		C177.64,187.38,176.11,185.09,173.76,184.61z"/>
	<path class="st0" d="M176.28,180.78c0.47-2.35-1.05-4.64-3.4-5.12c-2.35-0.48-4.64,1.05-5.12,3.4c-0.47,2.35,1.05,4.64,3.4,5.12
		C173.52,184.65,175.81,183.13,176.28,180.78z"/>
	<path class="st0" d="M106.98,281.51c-0.01,2.4,1.93,4.35,4.33,4.36c2.4,0.01,4.35-1.93,4.36-4.33c0.01-2.4-1.93-4.35-4.33-4.36
		C108.94,277.17,106.99,279.11,106.98,281.51z"/>
	<path class="st0" d="M126.45,270.38c-2.4-0.01-4.35,1.93-4.36,4.33c-0.01,2.4,1.93,4.35,4.33,4.36c2.4,0.01,4.35-1.93,4.36-4.33
		C130.79,272.34,128.85,270.39,126.45,270.38z"/>
	<path class="st0" d="M140.14,270.86c2.4,0.01,4.35-1.93,4.36-4.33c0.01-2.4-1.93-4.35-4.33-4.36c-2.4-0.01-4.35,1.93-4.36,4.33
		C135.8,268.9,137.74,270.85,140.14,270.86z"/>
	<path class="st0" d="M151.92,261.94c2.4,0.01,4.35-1.93,4.36-4.33c0.01-2.4-1.93-4.35-4.33-4.36c-2.4-0.01-4.35,1.93-4.36,4.33
		C147.59,259.99,149.53,261.94,151.92,261.94z"/>
	<path class="st0" d="M165.62,246.93c0.01-2.4-1.93-4.35-4.33-4.36c-2.4-0.01-4.35,1.93-4.36,4.33c-0.01,2.4,1.93,4.35,4.33,4.36
		C163.66,251.27,165.61,249.33,165.62,246.93z"/>
	<path class="st0" d="M173.37,237.48c0.01-2.4-1.93-4.35-4.33-4.36c-2.4-0.01-4.35,1.93-4.36,4.33c-0.01,2.4,1.93,4.35,4.33,4.36
		C171.41,241.82,173.36,239.88,173.37,237.48z"/>
	<path class="st0" d="M176.59,230.77c2.4,0.01,4.35-1.93,4.36-4.33c0.01-2.4-1.93-4.35-4.33-4.36c-2.4-0.01-4.35,1.93-4.36,4.33
		C172.25,228.82,174.19,230.77,176.59,230.77z"/>
	<path class="st0" d="M184.14,214.52c0.01-2.4-1.93-4.35-4.33-4.36c-2.4-0.01-4.35,1.93-4.36,4.33c-0.01,2.4,1.93,4.35,4.33,4.36
		C182.18,218.85,184.13,216.92,184.14,214.52z"/>
	<path class="st0" d="M185.75,203.11c0.01-2.4-1.93-4.35-4.33-4.36c-2.4-0.01-4.35,1.93-4.36,4.33c-0.01,2.4,1.93,4.35,4.33,4.36
		C183.8,207.45,185.75,205.51,185.75,203.11z"/>
	<path class="st0" d="M181.98,187.7c-2.4-0.01-4.35,1.93-4.36,4.33c-0.01,2.4,1.93,4.35,4.33,4.36s4.35-1.93,4.36-4.33
		S184.38,187.71,181.98,187.7z"/>
	<path class="st0" d="M180.93,186.91c2.4,0.01,4.35-1.93,4.36-4.33s-1.93-4.35-4.33-4.36c-2.4-0.01-4.35,1.93-4.36,4.33
		C176.59,184.95,178.53,186.9,180.93,186.91z"/>
	<path class="st0" d="M182.68,173.97c0.01-2.4-1.93-4.35-4.33-4.36c-2.4-0.01-4.35,1.93-4.36,4.33c-0.01,2.4,1.93,4.35,4.33,4.36
		C180.72,178.31,182.67,176.37,182.68,173.97z"/>
	<path class="st0" d="M142.88,284.62c-0.46-2.35-2.74-3.89-5.1-3.43c-2.35,0.46-3.89,2.74-3.43,5.1c0.46,2.35,2.74,3.89,5.1,3.43
		C141.81,289.25,143.35,286.97,142.88,284.62z"/>
	<path class="st0" d="M151.28,271.57c-2.35,0.46-3.89,2.74-3.43,5.1c0.46,2.35,2.74,3.89,5.1,3.43c2.35-0.46,3.89-2.74,3.43-5.1
		C155.92,272.64,153.64,271.11,151.28,271.57z"/>
	<path class="st0" d="M163.13,260.84c-2.35,0.46-3.89,2.74-3.43,5.1c0.46,2.35,2.74,3.89,5.1,3.43c2.35-0.46,3.89-2.74,3.43-5.1
		S165.49,260.38,163.13,260.84z"/>
	<path class="st0" d="M174.62,258.32c2.35-0.46,3.89-2.74,3.43-5.1s-2.74-3.89-5.1-3.43s-3.89,2.74-3.43,5.1
		C169.99,257.25,172.27,258.78,174.62,258.32z"/>
	<path class="st0" d="M185.12,240.93c-0.46-2.35-2.74-3.89-5.1-3.43s-3.89,2.74-3.43,5.1c0.46,2.35,2.74,3.89,5.1,3.43
		C184.05,245.57,185.58,243.29,185.12,240.93z"/>
	<path class="st0" d="M187.45,235.24c2.35-0.46,3.89-2.74,3.43-5.1s-2.74-3.89-5.1-3.43c-2.35,0.46-3.89,2.74-3.43,5.1
		C182.82,234.17,185.1,235.7,187.45,235.24z"/>
	<path class="st0" d="M192.73,222.94c2.35-0.46,3.89-2.74,3.43-5.1s-2.74-3.89-5.1-3.43c-2.35,0.46-3.89,2.74-3.43,5.1
		C188.1,221.87,190.38,223.4,192.73,222.94z"/>
	<path class="st0" d="M196.97,205.52c-0.46-2.35-2.74-3.89-5.1-3.43c-2.35,0.46-3.89,2.74-3.43,5.1s2.74,3.89,5.1,3.43
		C195.89,210.16,197.43,207.88,196.97,205.52z"/>
	<path class="st0" d="M191.23,190.6c-2.35,0.46-3.89,2.74-3.43,5.1s2.74,3.89,5.1,3.43c2.35-0.46,3.89-2.74,3.43-5.1
		S193.58,190.13,191.23,190.6z"/>
	<path class="st0" d="M191.29,188.17c2.35-0.46,3.89-2.74,3.43-5.1c-0.46-2.35-2.74-3.89-5.1-3.43c-2.35,0.46-3.89,2.74-3.43,5.1
		C186.65,187.09,188.93,188.63,191.29,188.17z"/>
	<path class="st0" d="M188.43,179.07c2.35-0.46,3.89-2.74,3.43-5.1s-2.74-3.89-5.1-3.43s-3.89,2.74-3.43,5.1
		C183.8,178,186.08,179.53,188.43,179.07z"/>
	<path class="st0" d="M184.2,171.14c2.35-0.46,3.89-2.74,3.43-5.1s-2.74-3.89-5.1-3.43s-3.89,2.74-3.43,5.1
		S181.84,171.6,184.2,171.14z"/>
	<path class="st0" d="M170.18,282.32c-0.91-2.22-3.45-3.28-5.67-2.37c-2.22,0.91-3.28,3.45-2.37,5.67c0.91,2.22,3.45,3.28,5.67,2.37
		C170.03,287.08,171.09,284.54,170.18,282.32z"/>
	<path class="st0" d="M179.17,275.93c2.22-0.91,3.28-3.45,2.37-5.67c-0.91-2.22-3.45-3.28-5.67-2.37c-2.22,0.91-3.28,3.45-2.37,5.67
		C174.42,275.78,176.96,276.84,179.17,275.93z"/>
	<path class="st0" d="M191.07,257.43c-0.91-2.22-3.45-3.28-5.67-2.37c-2.22,0.91-3.28,3.45-2.37,5.67c0.91,2.22,3.45,3.28,5.67,2.37
		C190.92,262.18,191.98,259.64,191.07,257.43z"/>
	<path class="st0" d="M196.18,250.35c2.22-0.91,3.28-3.45,2.37-5.67c-0.91-2.22-3.45-3.28-5.67-2.37c-2.22,0.91-3.28,3.45-2.37,5.67
		C191.42,250.2,193.96,251.26,196.18,250.35z"/>
	<path class="st0" d="M200.72,236.91c2.22-0.91,3.28-3.45,2.37-5.67c-0.91-2.22-3.45-3.28-5.67-2.37c-2.22,0.91-3.28,3.45-2.37,5.67
		C195.96,236.76,198.5,237.82,200.72,236.91z"/>
	<path class="st0" d="M206.63,219.54c-0.91-2.22-3.45-3.28-5.67-2.37c-2.22,0.91-3.28,3.45-2.37,5.67c0.91,2.22,3.45,3.28,5.67,2.37
		C206.48,224.29,207.54,221.76,206.63,219.54z"/>
	<path class="st0" d="M207.04,212.11c2.22-0.91,3.28-3.45,2.37-5.67c-0.91-2.22-3.45-3.28-5.67-2.37c-2.22,0.91-3.28,3.45-2.37,5.67
		C202.28,211.96,204.82,213.02,207.04,212.11z"/>
	<path class="st0" d="M205.43,199.87c2.22-0.91,3.28-3.45,2.37-5.67c-0.91-2.22-3.45-3.28-5.67-2.37c-2.22,0.91-3.28,3.45-2.37,5.67
		C200.67,199.72,203.21,200.78,205.43,199.87z"/>
	<path class="st0" d="M202.55,188.72c2.22-0.91,3.28-3.45,2.37-5.67c-0.91-2.22-3.45-3.28-5.67-2.37c-2.22,0.91-3.28,3.45-2.37,5.67
		C197.8,188.57,200.34,189.63,202.55,188.72z"/>
	<path class="st0" d="M198.84,178.29c2.22-0.91,3.28-3.45,2.37-5.67c-0.91-2.22-3.45-3.28-5.67-2.37c-2.22,0.91-3.28,3.45-2.37,5.67
		C194.08,178.14,196.62,179.2,198.84,178.29z"/>
	<path class="st0" d="M194.26,169.92c2.22-0.91,3.28-3.45,2.37-5.67c-0.91-2.22-3.45-3.28-5.67-2.37c-2.22,0.91-3.28,3.45-2.37,5.67
		C189.51,169.77,192.05,170.83,194.26,169.92z"/>
	<path class="st0" d="M190.93,157.3c-0.91-2.22-3.45-3.28-5.67-2.37c-2.22,0.91-3.28,3.45-2.37,5.67c0.91,2.22,3.45,3.28,5.67,2.37
		C190.78,162.05,191.84,159.52,190.93,157.3z"/>
	<path class="st0" d="M190.48,273.54c-2,1.33-2.54,4.02-1.22,6.02c1.33,2,4.02,2.54,6.02,1.22c2-1.33,2.54-4.02,1.22-6.02
		C195.18,272.75,192.48,272.21,190.48,273.54z"/>
	<path class="st0" d="M205.29,260.7c-1.33-2-4.02-2.54-6.02-1.22c-2,1.33-2.54,4.02-1.22,6.02c1.33,2,4.02,2.54,6.02,1.22
		C206.08,265.4,206.62,262.7,205.29,260.7z"/>
	<path class="st0" d="M210.92,252.28c2-1.33,2.54-4.02,1.22-6.02c-1.33-2-4.02-2.54-6.02-1.22c-2,1.33-2.54,4.02-1.22,6.02
		C206.23,253.06,208.92,253.6,210.92,252.28z"/>
	<path class="st0" d="M215.77,238.32c2-1.33,2.54-4.02,1.22-6.02c-1.33-2-4.02-2.54-6.02-1.22c-2,1.33-2.54,4.02-1.22,6.02
		C211.07,239.1,213.77,239.64,215.77,238.32z"/>
	<path class="st0" d="M212.79,217.01c-2,1.33-2.54,4.02-1.22,6.02c1.33,2,4.02,2.54,6.02,1.22c2-1.33,2.54-4.02,1.22-6.02
		C217.49,216.23,214.79,215.68,212.79,217.01z"/>
	<path class="st0" d="M220,206.06c-1.33-2-4.02-2.54-6.02-1.22c-2,1.33-2.54,4.02-1.22,6.02c1.33,2,4.02,2.54,6.02,1.22
		C220.79,210.76,221.33,208.06,220,206.06z"/>
	<path class="st0" d="M220.17,192.67c-1.33-2-4.02-2.54-6.02-1.22c-2,1.33-2.54,4.02-1.22,6.02c1.33,2,4.02,2.54,6.02,1.22
		C220.96,197.37,221.5,194.67,220.17,192.67z"/>
	<path class="st0" d="M214.99,187c2-1.33,2.54-4.02,1.22-6.02c-1.33-2-4.02-2.54-6.02-1.22c-2,1.33-2.54,4.02-1.22,6.02
		C210.29,187.79,212.99,188.33,214.99,187z"/>
	<path class="st0" d="M210,176.63c2-1.33,2.54-4.02,1.22-6.02c-1.33-2-4.02-2.54-6.02-1.22c-2,1.33-2.54,4.02-1.22,6.02
		C205.3,177.41,208,177.95,210,176.63z"/>
	<path class="st0" d="M204.32,167.12c2-1.33,2.54-4.02,1.22-6.02c-1.33-2-4.02-2.54-6.02-1.22c-2,1.33-2.54,4.02-1.22,6.02
		C199.62,167.9,202.32,168.45,204.32,167.12z"/>
	<path class="st0" d="M198.2,159.81c2-1.33,2.54-4.02,1.22-6.02c-1.33-2-4.02-2.54-6.02-1.22s-2.54,4.02-1.22,6.02
		C193.5,160.59,196.2,161.14,198.2,159.81z"/>
	<path class="st0" d="M192.46,148.08c-1.33-2-4.02-2.54-6.02-1.22c-2,1.33-2.54,4.02-1.22,6.02c1.33,2,4.02,2.54,6.02,1.22
		C193.25,152.77,193.79,150.08,192.46,148.08z"/>
	<path class="st0" d="M220.83,268.33c1.7-1.69,1.71-4.44,0.02-6.14c-1.69-1.7-4.44-1.71-6.14-0.02c-1.7,1.69-1.71,4.44-0.02,6.14
		C216.38,270.02,219.13,270.02,220.83,268.33z"/>
	<path class="st0" d="M226.71,252.84c1.7-1.69,1.71-4.44,0.02-6.14c-1.69-1.7-4.44-1.71-6.14-0.02c-1.7,1.69-1.71,4.44-0.02,6.14
		C222.26,254.52,225.01,254.53,226.71,252.84z"/>
	<path class="st0" d="M230.62,231.19c-1.69-1.7-4.44-1.71-6.14-0.02c-1.7,1.69-1.71,4.44-0.02,6.14c1.69,1.7,4.44,1.71,6.14,0.02
		C232.3,235.64,232.31,232.89,230.62,231.19z"/>
	<path class="st0" d="M232.65,216.55c-1.69-1.7-4.44-1.71-6.14-0.02c-1.7,1.69-1.71,4.44-0.02,6.14c1.69,1.7,4.44,1.71,6.14,0.02
		C234.33,221,234.34,218.25,232.65,216.55z"/>
	<path class="st0" d="M225.55,202.38c-1.7,1.69-1.71,4.44-0.02,6.14c1.69,1.7,4.44,1.71,6.14,0.02c1.7-1.69,1.71-4.44,0.02-6.14
		C230.01,200.7,227.26,200.69,225.55,202.38z"/>
	<path class="st0" d="M224.35,190.22c-1.7,1.69-1.71,4.44-0.02,6.14c1.69,1.7,4.44,1.71,6.14,0.02c1.7-1.69,1.71-4.44,0.02-6.14
		C228.8,188.53,226.05,188.52,224.35,190.22z"/>
	<path class="st0" d="M228.03,183.21c1.7-1.69,1.71-4.44,0.02-6.14c-1.69-1.7-4.44-1.71-6.14-0.02c-1.7,1.69-1.71,4.44-0.02,6.14
		C223.58,184.9,226.33,184.91,228.03,183.21z"/>
	<path class="st0" d="M221.86,172.52c1.7-1.69,1.71-4.44,0.02-6.14c-1.69-1.7-4.44-1.71-6.14-0.02c-1.7,1.69-1.71,4.44-0.02,6.14
		C217.41,174.2,220.16,174.21,221.86,172.52z"/>
	<path class="st0" d="M214.95,157.17c-1.69-1.7-4.44-1.71-6.14-0.02c-1.7,1.69-1.71,4.44-0.02,6.14c1.69,1.7,4.44,1.71,6.14,0.02
		C216.64,161.63,216.64,158.88,214.95,157.17z"/>
	<path class="st0" d="M207.51,155.1c1.7-1.69,1.71-4.44,0.02-6.14c-1.69-1.7-4.44-1.71-6.14-0.02c-1.7,1.69-1.71,4.44-0.02,6.14
		C203.06,156.79,205.81,156.79,207.51,155.1z"/>
	<path class="st0" d="M200.08,149.12c1.7-1.69,1.71-4.44,0.02-6.14c-1.69-1.7-4.44-1.71-6.14-0.02c-1.7,1.69-1.71,4.44-0.02,6.14
		C195.63,150.81,198.38,150.82,200.08,149.12z"/>
	<path class="st0" d="M192.15,144.88c1.7-1.69,1.71-4.44,0.02-6.14c-1.69-1.7-4.44-1.71-6.14-0.02c-1.7,1.69-1.71,4.44-0.02,6.14
		C187.7,146.56,190.45,146.57,192.15,144.88z"/>
	<path class="st0" d="M237.42,252.33c1.99,1.34,4.69,0.81,6.03-1.18c1.34-1.99,0.81-4.69-1.18-6.03c-1.99-1.34-4.69-0.81-6.03,1.18
		S235.43,250.99,237.42,252.33z"/>
	<path class="st0" d="M246.19,234.8c1.34-1.99,0.81-4.69-1.18-6.03c-1.99-1.34-4.69-0.81-6.03,1.18c-1.34,1.99-0.81,4.69,1.18,6.03
		C242.16,237.32,244.86,236.79,246.19,234.8z"/>
	<path class="st0" d="M245.81,212.81c-1.99-1.34-4.69-0.81-6.03,1.18s-0.81,4.69,1.18,6.03c1.99,1.34,4.69,0.81,6.03-1.18
		C248.33,216.85,247.8,214.15,245.81,212.81z"/>
	<path class="st0" d="M244.94,198.06c-1.99-1.34-4.69-0.81-6.03,1.18s-0.81,4.69,1.18,6.03c1.99,1.34,4.69,0.81,6.03-1.18
		C247.46,202.09,246.93,199.4,244.94,198.06z"/>
	<path class="st0" d="M236.4,191.57c1.99,1.34,4.69,0.81,6.03-1.18s0.81-4.69-1.18-6.03c-1.99-1.34-4.69-0.81-6.03,1.18
		C233.88,187.53,234.41,190.23,236.4,191.57z"/>
	<path class="st0" d="M238.87,178.69c1.34-1.99,0.81-4.69-1.18-6.03c-1.99-1.34-4.69-0.81-6.03,1.18c-1.34,1.99-0.81,4.69,1.18,6.03
		C234.84,181.21,237.53,180.68,238.87,178.69z"/>
	<path class="st0" d="M233.91,166.26c1.34-1.99,0.81-4.69-1.18-6.03c-1.99-1.34-4.69-0.81-6.03,1.18c-1.34,1.99-0.81,4.69,1.18,6.03
		C229.87,168.78,232.57,168.25,233.91,166.26z"/>
	<path class="st0" d="M225.77,156.98c1.34-1.99,0.81-4.69-1.18-6.03c-1.99-1.34-4.69-0.81-6.03,1.18s-0.81,4.69,1.18,6.03
		C221.73,159.5,224.43,158.97,225.77,156.98z"/>
	<path class="st0" d="M217.18,149.3c1.34-1.99,0.81-4.69-1.18-6.03c-1.99-1.34-4.69-0.81-6.03,1.18c-1.34,1.99-0.81,4.69,1.18,6.03
		C213.15,151.82,215.84,151.29,217.18,149.3z"/>
	<path class="st0" d="M207.12,136.66c-1.99-1.34-4.69-0.81-6.03,1.18c-1.34,1.99-0.81,4.69,1.18,6.03c1.99,1.34,4.69,0.81,6.03-1.18
		C209.64,140.7,209.11,138,207.12,136.66z"/>
	<path class="st0" d="M198.67,132.25c-1.99-1.34-4.69-0.81-6.03,1.18c-1.34,1.99-0.81,4.69,1.18,6.03c1.99,1.34,4.69,0.81,6.03-1.18
		C201.19,136.29,200.66,133.59,198.67,132.25z"/>
	<path class="st0" d="M185.21,136.84c1.99,1.34,4.69,0.81,6.03-1.18s0.81-4.69-1.18-6.03c-1.99-1.34-4.69-0.81-6.03,1.18
		C182.69,132.8,183.22,135.5,185.21,136.84z"/>
	<path class="st0" d="M256.6,232.22c2.21,0.92,4.76-0.12,5.68-2.33c0.92-2.21-0.12-4.76-2.33-5.68c-2.21-0.93-4.76,0.12-5.68,2.33
		C253.34,228.75,254.39,231.29,256.6,232.22z"/>
	<path class="st0" d="M256.1,215.65c2.21,0.92,4.76-0.12,5.68-2.33c0.92-2.21-0.12-4.76-2.33-5.68c-2.21-0.93-4.76,0.12-5.68,2.33
		C252.85,212.18,253.89,214.72,256.1,215.65z"/>
	<path class="st0" d="M259.45,197.5c0.92-2.21-0.12-4.76-2.33-5.68c-2.21-0.93-4.76,0.12-5.68,2.33c-0.92,2.21,0.12,4.76,2.33,5.68
		C255.98,200.76,258.53,199.72,259.45,197.5z"/>
	<path class="st0" d="M255.72,183.2c0.93-2.21-0.12-4.76-2.33-5.68c-2.21-0.93-4.76,0.12-5.68,2.33c-0.93,2.21,0.12,4.76,2.33,5.68
		C252.26,186.46,254.8,185.41,255.72,183.2z"/>
	<path class="st0" d="M249.43,170.49c0.92-2.21-0.12-4.76-2.34-5.68c-2.21-0.93-4.76,0.12-5.68,2.33c-0.92,2.21,0.12,4.76,2.33,5.68
		C245.96,173.75,248.51,172.7,249.43,170.49z"/>
	<path class="st0" d="M237.98,162.04c2.21,0.92,4.76-0.12,5.68-2.33c0.92-2.21-0.12-4.76-2.33-5.68c-2.21-0.92-4.76,0.12-5.68,2.33
		C234.72,158.58,235.77,161.12,237.98,162.04z"/>
	<path class="st0" d="M236.37,148.48c0.92-2.21-0.12-4.76-2.33-5.68c-2.21-0.93-4.76,0.12-5.68,2.33c-0.92,2.21,0.12,4.76,2.33,5.68
		C232.9,151.74,235.44,150.7,236.37,148.48z"/>
	<path class="st0" d="M224.24,135.29c-2.21-0.93-4.76,0.12-5.68,2.33c-0.93,2.21,0.12,4.76,2.33,5.68c2.21,0.92,4.76-0.12,5.68-2.33
		C227.5,138.75,226.45,136.21,224.24,135.29z"/>
	<path class="st0" d="M208.64,131.76c-0.92,2.21,0.12,4.76,2.33,5.68c2.21,0.92,4.76-0.12,5.68-2.33c0.92-2.21-0.12-4.76-2.33-5.68
		C212.11,128.51,209.56,129.55,208.64,131.76z"/>
	<path class="st0" d="M204.32,124.68c-2.21-0.92-4.76,0.12-5.68,2.33s0.12,4.76,2.33,5.68c2.21,0.92,4.76-0.12,5.68-2.33
		C207.58,128.15,206.53,125.61,204.32,124.68z"/>
	<path class="st0" d="M189.49,124.34c-0.92,2.21,0.12,4.76,2.33,5.68c2.21,0.92,4.76-0.12,5.68-2.33c0.92-2.21-0.12-4.76-2.33-5.68
		C192.95,121.08,190.41,122.12,189.49,124.34z"/>
	<path class="st0" d="M182.87,129.13c2.21,0.93,4.76-0.12,5.68-2.33c0.92-2.21-0.12-4.76-2.33-5.68c-2.21-0.93-4.76,0.12-5.68,2.33
		C179.61,125.66,180.65,128.21,182.87,129.13z"/>
	<path class="st0" d="M271.49,208.75c2.35,0.48,4.64-1.05,5.12-3.4c0.47-2.35-1.05-4.64-3.4-5.12c-2.35-0.47-4.64,1.05-5.12,3.4
		C267.62,205.98,269.14,208.27,271.49,208.75z"/>
	<path class="st0" d="M267.77,192.59c2.35,0.48,4.64-1.05,5.12-3.4c0.47-2.35-1.05-4.64-3.4-5.12c-2.35-0.47-4.64,1.05-5.12,3.4
		C263.9,189.83,265.42,192.12,267.77,192.59z"/>
	<path class="st0" d="M267.51,174.14c0.47-2.35-1.05-4.64-3.4-5.12c-2.35-0.47-4.64,1.05-5.12,3.4c-0.48,2.35,1.05,4.64,3.4,5.12
		C264.75,178.02,267.04,176.5,267.51,174.14z"/>
	<path class="st0" d="M255.95,164.24c2.35,0.48,4.64-1.05,5.12-3.4c0.47-2.35-1.05-4.64-3.4-5.12c-2.35-0.48-4.64,1.05-5.12,3.4
		C252.08,161.47,253.6,163.77,255.95,164.24z"/>
	<path class="st0" d="M252.42,149.61c0.48-2.35-1.05-4.64-3.4-5.12c-2.35-0.47-4.64,1.05-5.12,3.4c-0.47,2.35,1.05,4.64,3.4,5.12
		C249.65,153.48,251.94,151.96,252.42,149.61z"/>
	<path class="st0" d="M241.26,135.04c-2.35-0.47-4.64,1.05-5.12,3.4c-0.48,2.35,1.05,4.64,3.4,5.12c2.35,0.47,4.64-1.05,5.12-3.4
		C245.13,137.81,243.61,135.52,241.26,135.04z"/>
	<path class="st0" d="M226.79,128.85c-0.47,2.35,1.05,4.64,3.4,5.12c2.35,0.48,4.64-1.05,5.12-3.4c0.48-2.35-1.05-4.64-3.4-5.12
		C229.56,124.98,227.27,126.5,226.79,128.85z"/>
	<path class="st0" d="M220.84,119.99c-2.35-0.48-4.64,1.05-5.12,3.4c-0.48,2.35,1.05,4.64,3.4,5.12c2.35,0.47,4.64-1.05,5.12-3.4
		C224.71,122.76,223.19,120.47,220.84,119.99z"/>
	<path class="st0" d="M209.97,116.18c-2.35-0.48-4.64,1.05-5.12,3.4c-0.47,2.35,1.05,4.64,3.4,5.12s4.64-1.05,5.12-3.4
		C213.84,118.95,212.32,116.66,209.97,116.18z"/>
	<path class="st0" d="M197.51,121.99c2.35,0.48,4.64-1.05,5.12-3.4c0.48-2.35-1.05-4.64-3.4-5.12c-2.35-0.47-4.64,1.05-5.12,3.4
		C193.64,119.23,195.16,121.52,197.51,121.99z"/>
	<path class="st0" d="M189.74,112.63c-2.35-0.47-4.64,1.05-5.12,3.4c-0.48,2.35,1.05,4.64,3.4,5.12c2.35,0.47,4.64-1.05,5.12-3.4
		C193.61,115.4,192.09,113.11,189.74,112.63z"/>
	<path class="st0" d="M184.18,118.63c0.48-2.35-1.05-4.64-3.4-5.12c-2.35-0.47-4.64,1.05-5.12,3.4c-0.47,2.35,1.05,4.64,3.4,5.12
		C181.42,122.5,183.71,120.98,184.18,118.63z"/>
	<path class="st0" d="M281.52,182.82c2.4,0.01,4.35-1.93,4.36-4.33c0.01-2.4-1.93-4.35-4.33-4.36c-2.4-0.01-4.35,1.93-4.36,4.33
		C277.18,180.87,279.12,182.82,281.52,182.82z"/>
	<path class="st0" d="M279.07,163.38c0.01-2.4-1.93-4.35-4.33-4.36c-2.4-0.01-4.35,1.93-4.36,4.33c-0.01,2.4,1.93,4.35,4.33,4.36
		C277.12,167.72,279.07,165.78,279.07,163.38z"/>
	<path class="st0" d="M266.51,153.99c2.4,0.01,4.35-1.93,4.36-4.33c0.01-2.4-1.93-4.35-4.33-4.36c-2.4-0.01-4.35,1.93-4.36,4.33
		C262.17,152.03,264.11,153.99,266.51,153.99z"/>
	<path class="st0" d="M257.62,133.52c-2.4-0.01-4.35,1.93-4.36,4.33c-0.01,2.4,1.93,4.35,4.33,4.36c2.4,0.01,4.35-1.93,4.36-4.33
		C261.96,135.48,260.02,133.52,257.62,133.52z"/>
	<path class="st0" d="M251.27,128.54c0.01-2.4-1.93-4.35-4.33-4.36c-2.4-0.01-4.35,1.93-4.36,4.33s1.93,4.35,4.33,4.36
		C249.31,132.88,251.26,130.94,251.27,128.54z"/>
	<path class="st0" d="M233.13,120.76c-0.01,2.4,1.93,4.35,4.33,4.36c2.4,0.01,4.35-1.93,4.36-4.33c0.01-2.4-1.93-4.35-4.33-4.36
		C235.08,116.42,233.13,118.36,233.13,120.76z"/>
	<path class="st0" d="M222.09,113.18c-0.01,2.4,1.93,4.35,4.33,4.36s4.35-1.93,4.36-4.33c0.01-2.4-1.93-4.35-4.33-4.36
		S222.1,110.78,222.09,113.18z"/>
	<path class="st0" d="M210.17,109.99c-0.01,2.4,1.93,4.35,4.33,4.36s4.35-1.93,4.36-4.33c0.01-2.4-1.93-4.35-4.33-4.36
		C212.12,105.65,210.17,107.59,210.17,109.99z"/>
	<path class="st0" d="M207.45,108.4c0.01-2.4-1.93-4.35-4.33-4.36s-4.35,1.93-4.36,4.33c-0.01,2.4,1.93,4.35,4.33,4.36
		S207.44,110.8,207.45,108.4z"/>
	<path class="st0" d="M187.71,107.81c-0.01,2.4,1.93,4.35,4.33,4.36c2.4,0.01,4.35-1.93,4.36-4.33c0.01-2.4-1.93-4.35-4.33-4.36
		C189.66,103.47,187.71,105.41,187.71,107.81z"/>
	<path class="st0" d="M178.22,108.84c-0.01,2.4,1.93,4.35,4.33,4.36c2.4,0.01,4.35-1.93,4.36-4.33c0.01-2.4-1.93-4.35-4.33-4.36
		C180.18,104.5,178.23,106.44,178.22,108.84z"/>
	<path class="st0" d="M173.97,107.11c-2.4-0.01-4.35,1.93-4.36,4.33c-0.01,2.4,1.93,4.35,4.33,4.36c2.4,0.01,4.35-1.93,4.36-4.33
		S176.37,107.12,173.97,107.11z"/>
	<path class="st0" d="M289.72,150.35c-0.46-2.35-2.74-3.89-5.1-3.43c-2.35,0.46-3.89,2.74-3.43,5.1s2.74,3.89,5.1,3.43
		C288.64,154.98,290.18,152.7,289.72,150.35z"/>
	<path class="st0" d="M275,133.42c-2.35,0.46-3.89,2.74-3.43,5.1c0.46,2.35,2.74,3.89,5.1,3.43c2.35-0.46,3.89-2.74,3.43-5.1
		C279.64,134.49,277.36,132.96,275,133.42z"/>
	<path class="st0" d="M265.95,130.09c2.35-0.46,3.89-2.74,3.43-5.1c-0.46-2.35-2.74-3.89-5.1-3.43c-2.35,0.46-3.89,2.74-3.43,5.1
		C261.31,129.02,263.59,130.55,265.95,130.09z"/>
	<path class="st0" d="M253.23,111.75c-2.35,0.46-3.89,2.74-3.43,5.1c0.46,2.35,2.74,3.89,5.1,3.43c2.35-0.46,3.89-2.74,3.43-5.1
		C257.87,112.82,255.59,111.29,253.23,111.75z"/>
	<path class="st0" d="M240.94,104.67c-2.35,0.46-3.89,2.74-3.43,5.1c0.46,2.35,2.74,3.89,5.1,3.43c2.35-0.46,3.89-2.74,3.43-5.1
		C245.57,105.75,243.29,104.21,240.94,104.67z"/>
	<path class="st0" d="M226.72,104.01c0.46,2.35,2.74,3.89,5.1,3.43c2.36-0.46,3.89-2.74,3.43-5.1c-0.46-2.35-2.74-3.89-5.1-3.43
		C227.8,99.38,226.26,101.66,226.72,104.01z"/>
	<path class="st0" d="M214.42,98.73c0.46,2.35,2.74,3.89,5.1,3.43c2.35-0.46,3.89-2.74,3.43-5.1c-0.46-2.35-2.74-3.89-5.1-3.43
		C215.5,94.09,213.96,96.38,214.42,98.73z"/>
	<path class="st0" d="M210.63,96.26c-0.46-2.35-2.74-3.89-5.1-3.43c-2.35,0.46-3.89,2.74-3.43,5.1c0.46,2.35,2.74,3.89,5.1,3.43
		C209.55,100.89,211.09,98.61,210.63,96.26z"/>
	<path class="st0" d="M190.6,98.57c0.46,2.35,2.74,3.89,5.1,3.43c2.35-0.46,3.89-2.74,3.43-5.1c-0.46-2.35-2.74-3.89-5.1-3.43
		C191.68,93.93,190.14,96.21,190.6,98.57z"/>
	<path class="st0" d="M184.75,103.6c2.35-0.46,3.89-2.74,3.43-5.1c-0.46-2.35-2.74-3.89-5.1-3.43c-2.35,0.46-3.89,2.74-3.43,5.1
		S182.39,104.06,184.75,103.6z"/>
	<path class="st0" d="M173.98,97.93c-2.35,0.46-3.89,2.74-3.43,5.1c0.46,2.35,2.74,3.89,5.1,3.43c2.35-0.46,3.89-2.74,3.43-5.1
		C178.61,99.01,176.33,97.47,173.98,97.93z"/>
	<path class="st0" d="M166.04,102.17c-2.35,0.46-3.89,2.74-3.43,5.1s2.74,3.89,5.1,3.43c2.35-0.46,3.89-2.74,3.43-5.1
		C170.68,103.24,168.4,101.71,166.04,102.17z"/>
	<path class="st0" d="M285.63,127.66c2.22-0.91,3.28-3.45,2.37-5.67c-0.91-2.22-3.45-3.28-5.67-2.37c-2.22,0.91-3.28,3.45-2.37,5.67
		C280.87,127.51,283.41,128.57,285.63,127.66z"/>
	<path class="st0" d="M270.26,108.26c-2.22,0.91-3.28,3.45-2.37,5.67s3.45,3.28,5.67,2.37c2.22-0.91,3.28-3.45,2.37-5.67
		C275.02,108.41,272.48,107.35,270.26,108.26z"/>
	<path class="st0" d="M255.06,104.4c0.91,2.22,3.45,3.28,5.67,2.37c2.22-0.91,3.28-3.45,2.37-5.67c-0.91-2.22-3.45-3.28-5.67-2.37
		C255.21,99.64,254.15,102.18,255.06,104.4z"/>
	<path class="st0" d="M242.32,96.92c0.91,2.22,3.45,3.28,5.67,2.37c2.22-0.91,3.28-3.45,2.37-5.67c-0.91-2.22-3.45-3.28-5.67-2.37
		C242.47,92.16,241.4,94.7,242.32,96.92z"/>
	<path class="st0" d="M231.25,86.71c-2.22,0.91-3.28,3.45-2.37,5.67c0.91,2.22,3.45,3.28,5.67,2.37c2.22-0.91,3.28-3.45,2.37-5.67
		C236,86.86,233.47,85.8,231.25,86.71z"/>
	<path class="st0" d="M219.54,83.17c-2.22,0.91-3.28,3.45-2.37,5.67c0.91,2.22,3.45,3.28,5.67,2.37c2.22-0.91,3.28-3.45,2.37-5.67
		C224.3,83.32,221.76,82.26,219.54,83.17z"/>
	<path class="st0" d="M212.12,82.76c-0.91-2.22-3.45-3.28-5.67-2.37c-2.22,0.91-3.28,3.45-2.37,5.67s3.45,3.28,5.67,2.37
		C211.97,87.51,213.03,84.97,212.12,82.76z"/>
	<path class="st0" d="M194.21,82c-2.22,0.91-3.28,3.45-2.37,5.67s3.45,3.28,5.67,2.37c2.22-0.91,3.28-3.45,2.37-5.67
		C198.96,82.15,196.43,81.09,194.21,82z"/>
	<path class="st0" d="M183.05,84.87c-2.22,0.91-3.28,3.45-2.37,5.67s3.45,3.28,5.67,2.37s3.28-3.45,2.37-5.67
		C187.81,85.02,185.27,83.96,183.05,84.87z"/>
	<path class="st0" d="M172.63,88.59c-2.22,0.91-3.28,3.45-2.37,5.67s3.45,3.28,5.67,2.37c2.22-0.91,3.28-3.45,2.37-5.67
		C177.38,88.73,174.84,87.67,172.63,88.59z"/>
	<path class="st0" d="M164.26,93.16c-2.22,0.91-3.28,3.45-2.37,5.67c0.91,2.22,3.45,3.28,5.67,2.37c2.22-0.91,3.28-3.45,2.37-5.67
		C169.01,93.31,166.48,92.25,164.26,93.16z"/>
	<path class="st0" d="M157.3,98.86c-2.22,0.91-3.28,3.45-2.37,5.67s3.45,3.28,5.67,2.37c2.22-0.91,3.28-3.45,2.37-5.67
		C162.06,99.01,159.52,97.95,157.3,98.86z"/>
	<path class="st0" d="M274.76,93.29c-2,1.33-2.54,4.02-1.22,6.02c1.33,2,4.02,2.54,6.02,1.22c2-1.33,2.54-4.02,1.22-6.02
		C279.46,92.51,276.76,91.97,274.76,93.29z"/>
	<path class="st0" d="M259.49,90.53c1.33,2,4.02,2.54,6.02,1.22c2-1.33,2.54-4.02,1.22-6.02c-1.33-2-4.02-2.54-6.02-1.22
		C258.71,85.83,258.16,88.53,259.49,90.53z"/>
	<path class="st0" d="M245.05,83.68c1.33,2,4.02,2.54,6.02,1.22c2-1.33,2.54-4.02,1.22-6.02c-1.33-2-4.02-2.54-6.02-1.22
		C244.27,78.99,243.72,81.68,245.05,83.68z"/>
	<path class="st0" d="M232.3,72.81c-2,1.33-2.54,4.02-1.22,6.02c1.33,2,4.02,2.54,6.02,1.22c2-1.33,2.54-4.02,1.22-6.02
		C237,72.03,234.3,71.49,232.3,72.81z"/>
	<path class="st0" d="M218.24,70.98c-2,1.33-2.54,4.02-1.22,6.02c1.33,2,4.02,2.54,6.02,1.22c2-1.33,2.54-4.02,1.22-6.02
		C222.93,70.2,220.24,69.66,218.24,70.98z"/>
	<path class="st0" d="M206.07,69.79c-2,1.33-2.54,4.02-1.22,6.02c1.33,2,4.02,2.54,6.02,1.22c2-1.33,2.54-4.02,1.22-6.02
		C210.76,69.01,208.07,68.46,206.07,69.79z"/>
	<path class="st0" d="M192.68,69.62c-2,1.33-2.54,4.02-1.22,6.02c1.33,2,4.02,2.54,6.02,1.22c2-1.33,2.54-4.02,1.22-6.02
		C197.38,68.84,194.68,68.29,192.68,69.62z"/>
	<path class="st0" d="M180.99,73.59c-2,1.33-2.54,4.02-1.22,6.02c1.33,2,4.02,2.54,6.02,1.22c2-1.33,2.54-4.02,1.22-6.02
		C185.69,72.81,182.99,72.26,180.99,73.59z"/>
	<path class="st0" d="M170.61,78.58c-2,1.33-2.54,4.02-1.22,6.02c1.33,2,4.02,2.54,6.02,1.22c2-1.33,2.54-4.02,1.22-6.02
		C175.31,77.8,172.61,77.25,170.61,78.58z"/>
	<path class="st0" d="M161.11,84.26c-2,1.33-2.54,4.02-1.22,6.02c1.33,2,4.02,2.54,6.02,1.22c2-1.33,2.54-4.02,1.22-6.02
		C165.8,83.48,163.11,82.93,161.11,84.26z"/>
	<path class="st0" d="M153.79,90.38c-2,1.33-2.54,4.02-1.22,6.02c1.33,2,4.02,2.54,6.02,1.22c2-1.33,2.54-4.02,1.22-6.02
		C158.49,89.6,155.79,89.05,153.79,90.38z"/>
	<path class="st0" d="M154.11,98.54c-1.33-2-4.02-2.54-6.02-1.22c-2,1.33-2.54,4.02-1.22,6.02s4.02,2.54,6.02,1.22
		C154.89,103.24,155.43,100.54,154.11,98.54z"/>
</g>
</svg>
